<?xml version="1.0" encoding="utf-8"?>
<!-- Generator: Adobe Illustrator 28.0.0, SVG Export Plug-In . SVG Version: 6.00 Build 0)  -->
<svg version="1.1" xmlns="http://www.w3.org/2000/svg" xmlns:xlink="http://www.w3.org/1999/xlink" x="0px" y="0px"
	 viewBox="0 0 258 145" style="enable-background:new 0 0 258 145;" xml:space="preserve">
<style type="text/css">
	.st0{fill:#FFFFFF;}
	.st1{fill:#ED2377;}
	.st2{fill:#86C440;}
	.st3{fill:#14B099;}
	.st4{fill:#F79329;}
	.st5{fill:#197EAF;}
	.st6{opacity:0.15;}
	.st7{fill-rule:evenodd;clip-rule:evenodd;fill:#FFFFFF;}
</style>
<g id="DELETE_O_GABARITO_ANTES_DO_ENVIO">
	<rect x="0" y="-0.1" class="st0" width="258" height="145.1"/>
	<g>
		<g id="Layer_x5F_1_00000138544623991279129730000002662252862585062294_">
			<g id="_610717584_00000129183975911558343690000008245677720093170343_">
				<path class="st1" d="M148.5,47c-2.9-4.6-10.6-7.3-17-5.4c-6.6,2-10.3,8.2-14.5,12.7c-4.4,4.8-10.7,6.4-9-2.5
					c-0.8,1.8-1.2,3.5-1.1,5.2c0.2,3.4,2.6,5.2,5.4,5.3c6,0.2,9.5-5.4,13.5-10.3C133.1,42.9,142.7,43,148.5,47z"/>
				<path class="st2" d="M109.3,62.5c1.9,2.2,4.9,3.8,8.3,4.2c9.7-0.3,13.1-5.8,15.9-10.8c5.2-9.1,12.7-1.5,4.8,0.2
					c-3.2,0.7-6,1.8-6.2,5.8c2-3.5,7.6-1.7,11-3.1c7.2-3.1,0.4-13.7-8.6-10.4c-7.1,2.6-7.7,10.4-13.9,13.5
					C117.6,63.4,112.8,63.7,109.3,62.5z"/>
				<path class="st3" d="M133.1,71.9c-0.6-8.7,11.1-2.4,17-10c4.3-5.6,2.2-15.2-9.1-15.5c8.6,2.3,9,10.5,4.5,13.6
					c-4.3,2.9-10.8-0.9-14.1,4.5C129.9,67,130.2,70.3,133.1,71.9z"/>
				<path class="st4" d="M133.3,39.6c-8.8-0.5-15.7,1.5-19.5,9.7c-1.5,3.3-5,0.7,0.7-4.8c-10,5.7-5,17.8,2.4,6.8
					C121,45.3,125.2,40,133.3,39.6z"/>
			</g>
		</g>
		<g>
			<g>
				<path class="st5" d="M81.8,96.5c-0.2-0.2-0.2-0.2-0.2-1.1c0-1-0.1-1.3-0.4-3.1L81,91.2h-3.7l0,0.2C77.2,92,77,95.3,77,96.1
					c0,0.2-0.3,0.4-0.6,0.6c-1.1,0.5-2.9,0.3-3.4-0.4c-0.1-0.2-0.1-0.2-0.1-1.2c0.1-2.5,0.5-6.6,1-9.4c0.5-3.2,1.3-6,2.2-7.9
					c0.9-1.8,1.5-2.3,3.2-2.3c0.8,0,1.2,0.1,1.7,0.3c0.6,0.3,0.9,0.9,1.4,2.3c0.5,1.7,1,3.5,1.8,7.8c0.3,1.5,0.7,3.4,0.8,4.3
					c0.6,3,0.7,3.9,0.7,5.1c0,1,0,1.1-0.1,1.2C85.2,97,84,97.2,82.9,97C82.4,97,82,96.8,81.8,96.5z M79,81.2c0,0,0,0-0.3,1.1
					c-0.3,1.3-0.9,4.3-0.9,4.7c0,0.1,0,0.1,1.2,0.1c0.6,0,1.2,0,1.2-0.1C80.2,87,79.1,81.3,79,81.2z"/>
				<path class="st5" d="M91.9,96.5c-0.1-0.2-0.1-0.4,0-12.3l0-6.3h-4.7l-0.2-0.2c-0.2-0.3-0.3-0.6-0.3-1.3c0-0.6,0.2-0.9,0.4-1.1
					c0.2-0.1,13.6-0.1,13.8,0.1c0.1,0,0.2,0.2,0.3,0.3c0.1,0.2,0.1,0.3,0.1,0.9c0,0.6,0,0.7-0.1,0.9c-0.2,0.5-0.1,0.4-2.8,0.4
					l-2.4,0l0,9.2c0,7.9-0.1,9.2-0.1,9.3c-0.2,0.5-1.5,0.8-2.6,0.7C92.7,97,92.1,96.7,91.9,96.5z"/>
				<path class="st5" d="M108.7,96.5c-0.1-0.2-0.1-0.4,0-12.3l0-6.3h-4.7l-0.2-0.2c-0.2-0.3-0.3-0.6-0.3-1.3c0-0.6,0.2-0.9,0.4-1.1
					c0.2-0.1,13.6-0.1,13.8,0.1c0.1,0,0.2,0.2,0.3,0.3c0.1,0.2,0.1,0.3,0.1,0.9c0,0.6,0,0.7-0.1,0.9c-0.2,0.5-0.1,0.4-2.8,0.4
					l-2.4,0l0,9.2c0,7.9-0.1,9.2-0.1,9.3c-0.2,0.5-1.5,0.8-2.6,0.7C109.5,97,108.9,96.7,108.7,96.5z"/>
				<path class="st5" d="M121.6,96.6l-0.1-0.3l0-10.2c0-11.2,0-10.6,0.3-10.9l0.2-0.1l9.3,0l0.2,0.2c0.4,0.4,0.4,2-0.1,2.3
					c-0.1,0.1-0.8,0.1-2.9,0.1l-2.8,0v6.6l1.4,0c0.8,0,1.7,0,2.1,0c0.6,0,0.7,0,0.8,0.2c0.2,0.2,0.3,0.7,0.3,1.3
					c0,0.6-0.2,1-0.4,1.1c-0.1,0-0.8,0.1-2.2,0c-1.1,0-2,0-2,0c0,0,0,1.7,0,3.8l0,3.8l5.9,0l0.1,0.2c0.4,0.5,0.4,1.8,0,2.3l-0.1,0.1
					h-4.8c-4.6,0-4.8,0-4.9-0.1C121.8,97,121.7,96.8,121.6,96.6z"/>
				<path class="st5" d="M145.8,96.7c-0.3-0.1-0.4-0.2-0.7-1c-0.3-0.8-3.3-8.2-4.6-11.3l-0.8-2l0,1.4c0,0.8,0,3.9,0,6.9
					c0,6,0,5.6-0.4,5.9c-0.9,0.6-2.9,0.5-3.6-0.2l-0.2-0.2l0-10.1c0-11.5,0-10.3,0.5-10.6c0.4-0.2,1-0.3,1.7-0.3
					c0.7,0,1.2,0.1,1.5,0.2c0.3,0.1,0.2-0.1,1.6,3.5c2.9,7.3,4.5,11.3,4.6,11.3c0,0,0-3.3,0-7.3c0-8.2-0.1-7.5,0.4-7.8
					c0.2-0.1,0.4-0.2,0.6-0.2c0.4-0.1,1.4-0.1,1.8,0c0.5,0.1,1,0.4,1.1,0.6c0.1,0.2,0.1,1.2,0.1,10.4c0,11.5,0.1,10.5-0.4,10.7
					c-0.4,0.2-0.8,0.3-1.5,0.3c-0.3,0-0.7,0-0.8,0C146.7,97,146,96.8,145.8,96.7z"/>
				<path class="st5" d="M158.3,96.5c-0.1-0.2-0.1-0.4,0-12.3l0-6.3h-4.7l-0.2-0.2c-0.2-0.3-0.3-0.6-0.3-1.3c0-0.6,0.2-0.9,0.4-1.1
					c0.2-0.1,13.6-0.1,13.8,0.1c0.1,0,0.2,0.2,0.3,0.3c0.1,0.2,0.1,0.3,0.1,0.9c0,0.6,0,0.7-0.1,0.9c-0.2,0.5-0.1,0.4-2.8,0.4
					l-2.4,0l0,9.2c0,7.9-0.1,9.2-0.1,9.3c-0.2,0.5-1.5,0.8-2.6,0.7C159.1,97,158.5,96.7,158.3,96.5z"/>
				<path class="st5" d="M172.6,95.4c-1.8-1.5-3-4.1-3.4-7.1c-0.1-0.9-0.1-2.8,0-3.8c0.5-3.6,2.1-6.5,4.3-8c1.3-0.8,2.6-1.2,4.3-1.2
					c1.8,0,3,0.4,4.3,1.2c1,0.6,1.9,1.7,2.5,2.8c0.8,1.4,1.4,3.3,1.6,5.1c0.1,0.8,0,3.1-0.1,3.8c-0.3,1.8-0.8,3.2-1.5,4.5
					c-1.3,2.3-3.2,3.8-5.6,4.2c-0.6,0.1-1.9,0.1-2.5,0.1C175.1,96.9,173.7,96.3,172.6,95.4z M180.4,92.7c0.8-1.3,1.4-3,1.7-4.9
					c0.1-0.8,0.1-3,0-3.8c-0.4-2.4-1.3-4.4-2.5-5.7c-0.5-0.5-1-0.9-1.5-1c-0.3-0.1-0.5,0-1.1,0.4c-1.8,1.2-3.1,3.9-3.5,7
					c-0.1,0.9-0.1,2.9,0,3.8c0.4,2.4,1.2,4.3,2.4,5.6c0.7,0.7,1.4,1.2,1.8,1.2c0.1,0,0.4-0.1,0.6-0.2
					C178.9,94.6,179.7,93.7,180.4,92.7z"/>
			</g>
			<g>
				<path class="st3" d="M74.2,103.2c-0.2,0-0.4,0-0.5-0.1c-0.2-0.1-0.3-0.2-0.4-0.3c-0.1-0.1-0.2-0.3-0.3-0.4
					c-0.1-0.2-0.1-0.3-0.1-0.5s0-0.4,0.1-0.5c0.1-0.2,0.2-0.3,0.3-0.4c0.1-0.1,0.3-0.2,0.4-0.3c0.2-0.1,0.3-0.1,0.5-0.1
					c0.2,0,0.4,0,0.5,0.1c0.2,0.1,0.3,0.2,0.4,0.3l-0.2,0.2c-0.1-0.1-0.2-0.2-0.3-0.2c-0.1,0-0.2-0.1-0.4-0.1c-0.1,0-0.3,0-0.4,0.1
					c-0.1,0-0.2,0.1-0.3,0.2c-0.1,0.1-0.2,0.2-0.2,0.3c0,0.1-0.1,0.2-0.1,0.4c0,0.1,0,0.3,0.1,0.4c0,0.1,0.1,0.2,0.2,0.3
					c0.1,0.1,0.2,0.2,0.3,0.2c0.1,0,0.3,0.1,0.4,0.1c0.1,0,0.3,0,0.4-0.1c0.1,0,0.2-0.1,0.3-0.2l0.2,0.2c-0.1,0.1-0.3,0.2-0.4,0.3
					C74.6,103.2,74.4,103.2,74.2,103.2z"/>
				<path class="st3" d="M75.6,103.2v-2.5H76v2.2h1.4v0.3H75.6z"/>
				<path class="st3" d="M77.7,100.5l0.5-0.5h0.4l-0.6,0.5H77.7z M77.8,103.2v-2.5h0.4v2.5H77.8z"/>
				<path class="st3" d="M78.9,103.2v-2.5h0.3l1.7,2.1h-0.2v-2.1H81v2.5h-0.3l-1.7-2.1h0.2v2.1H78.9z"/>
				<path class="st3" d="M81.8,103.2v-2.5h0.4v2.5H81.8z"/>
				<path class="st3" d="M84,103.2c-0.2,0-0.4,0-0.5-0.1c-0.2-0.1-0.3-0.2-0.4-0.3c-0.1-0.1-0.2-0.3-0.3-0.4
					c-0.1-0.2-0.1-0.3-0.1-0.5s0-0.4,0.1-0.5c0.1-0.2,0.2-0.3,0.3-0.4c0.1-0.1,0.3-0.2,0.4-0.3c0.2-0.1,0.3-0.1,0.5-0.1
					c0.2,0,0.4,0,0.5,0.1c0.2,0.1,0.3,0.2,0.4,0.3l-0.2,0.2c-0.1-0.1-0.2-0.2-0.3-0.2c-0.1,0-0.2-0.1-0.4-0.1c-0.1,0-0.3,0-0.4,0.1
					c-0.1,0-0.2,0.1-0.3,0.2c-0.1,0.1-0.2,0.2-0.2,0.3c0,0.1-0.1,0.2-0.1,0.4c0,0.1,0,0.3,0.1,0.4c0,0.1,0.1,0.2,0.2,0.3
					c0.1,0.1,0.2,0.2,0.3,0.2c0.1,0,0.3,0.1,0.4,0.1c0.1,0,0.3,0,0.4-0.1c0.1,0,0.2-0.1,0.3-0.2l0.2,0.2c-0.1,0.1-0.3,0.2-0.4,0.3
					C84.4,103.2,84.2,103.2,84,103.2z"/>
				<path class="st3" d="M85.1,103.2l1.1-2.5h0.4l1.1,2.5h-0.4l-1-2.3h0.1l-1,2.3H85.1z M85.5,102.6l0.1-0.3h1.4l0.1,0.3H85.5z"/>
				<path class="st3" d="M89,103.2v-2.5h1.1c0.3,0,0.5,0.1,0.7,0.2c0.2,0.1,0.4,0.3,0.5,0.4c0.1,0.2,0.2,0.4,0.2,0.7
					s-0.1,0.5-0.2,0.7c-0.1,0.2-0.3,0.3-0.5,0.4c-0.2,0.1-0.4,0.2-0.7,0.2H89z M89.4,102.9h0.7c0.2,0,0.4,0,0.5-0.1
					c0.2-0.1,0.3-0.2,0.4-0.3c0.1-0.1,0.1-0.3,0.1-0.5c0-0.2,0-0.4-0.1-0.5c-0.1-0.1-0.2-0.3-0.4-0.3c-0.2-0.1-0.3-0.1-0.5-0.1h-0.7
					V102.9z"/>
				<path class="st3" d="M92.4,102.9h1.5v0.3H92v-2.5h1.8v0.3h-1.4V102.9z M92.3,101.8h1.3v0.3h-1.3V101.8z"/>
				<path class="st3" d="M95.4,103.2v-2.5h0.4v2.5H95.4z"/>
				<path class="st3" d="M96.5,103.2v-2.5h0.3l1.7,2.1h-0.2v-2.1h0.4v2.5h-0.3l-1.7-2.1h0.2v2.1H96.5z"/>
				<path class="st3" d="M99.9,103.2V101H99v-0.3h2.1v0.3h-0.9v2.2H99.9z"/>
				<path class="st3" d="M101.9,102.9h1.5v0.3h-1.8v-2.5h1.8v0.3h-1.4V102.9z M101.8,101.8h1.3v0.3h-1.3V101.8z"/>
				<path class="st3" d="M103.9,103.2v-2.5h1c0.2,0,0.4,0,0.6,0.1c0.2,0.1,0.3,0.2,0.4,0.3c0.1,0.1,0.1,0.3,0.1,0.5s0,0.3-0.1,0.5
					c-0.1,0.1-0.2,0.2-0.4,0.3c-0.2,0.1-0.3,0.1-0.6,0.1h-0.8l0.2-0.2v0.9H103.9z M104.3,102.3l-0.2-0.2h0.8c0.2,0,0.4,0,0.5-0.1
					c0.1-0.1,0.2-0.2,0.2-0.4c0-0.2-0.1-0.3-0.2-0.4c-0.1-0.1-0.3-0.1-0.5-0.1h-0.8l0.2-0.2V102.3z M105.6,103.2l-0.6-0.9h0.4
					l0.6,0.9H105.6z"/>
				<path class="st3" d="M107.2,103.2l-1.1-2.5h0.4l1,2.3h-0.2l1-2.3h0.4l-1.1,2.5H107.2z"/>
				<path class="st3" d="M109.4,102.9h1.5v0.3H109v-2.5h1.8v0.3h-1.4V102.9z M109.3,101.8h1.3v0.3h-1.3V101.8z"/>
				<path class="st3" d="M111.4,103.2v-2.5h0.3l1.7,2.1h-0.2v-2.1h0.4v2.5h-0.3l-1.7-2.1h0.2v2.1H111.4z"/>
				<path class="st3" d="M115.4,103.2c-0.2,0-0.4,0-0.5-0.1c-0.2-0.1-0.3-0.2-0.4-0.3c-0.1-0.1-0.2-0.3-0.3-0.4
					c-0.1-0.2-0.1-0.3-0.1-0.5s0-0.4,0.1-0.5c0.1-0.2,0.2-0.3,0.3-0.4c0.1-0.1,0.3-0.2,0.4-0.3c0.2-0.1,0.3-0.1,0.5-0.1
					c0.2,0,0.4,0,0.5,0.1c0.2,0.1,0.3,0.2,0.4,0.3l-0.2,0.2c-0.1-0.1-0.2-0.2-0.3-0.2c-0.1,0-0.2-0.1-0.4-0.1c-0.1,0-0.3,0-0.4,0.1
					c-0.1,0-0.2,0.1-0.3,0.2c-0.1,0.1-0.2,0.2-0.2,0.3c0,0.1-0.1,0.2-0.1,0.4c0,0.1,0,0.3,0.1,0.4c0,0.1,0.1,0.2,0.2,0.3
					c0.1,0.1,0.2,0.2,0.3,0.2c0.1,0,0.3,0.1,0.4,0.1c0.1,0,0.3,0,0.4-0.1c0.1,0,0.2-0.1,0.3-0.2l0.2,0.2c-0.1,0.1-0.3,0.2-0.4,0.3
					C115.8,103.2,115.6,103.2,115.4,103.2z M115.3,104c-0.1,0-0.1,0-0.2,0c-0.1,0-0.1,0-0.1-0.1l0.1-0.2c0,0,0.1,0,0.1,0
					c0,0,0.1,0,0.1,0c0.1,0,0.1,0,0.2,0c0,0,0-0.1,0-0.1c0,0,0-0.1,0-0.1c0,0-0.1,0-0.2,0h-0.1l0.1-0.4h0.2l-0.1,0.2
					c0.1,0,0.2,0,0.2,0.1c0.1,0.1,0.1,0.1,0.1,0.2c0,0.1,0,0.2-0.1,0.2C115.5,104,115.4,104,115.3,104z"/>
				<path class="st3" d="M116.5,103.2l1.1-2.5h0.4l1.1,2.5h-0.4l-1-2.3h0.1l-1,2.3H116.5z M117,102.6l0.1-0.3h1.4l0.1,0.3H117z
					 M118,100.5c-0.1,0-0.1,0-0.2,0c0,0-0.1-0.1-0.1-0.1c0,0-0.1-0.1-0.1-0.1c0,0-0.1,0-0.1,0c-0.1,0-0.1,0-0.1,0.1
					c0,0-0.1,0.1-0.1,0.2h-0.2c0-0.1,0-0.2,0.1-0.3c0.1-0.1,0.1-0.1,0.3-0.1c0.1,0,0.1,0,0.2,0c0,0,0.1,0.1,0.1,0.1
					c0,0,0.1,0.1,0.1,0.1c0,0,0.1,0,0.1,0c0.1,0,0.1,0,0.1-0.1c0,0,0.1-0.1,0.1-0.2h0.2c0,0.1,0,0.2-0.1,0.3
					C118.2,100.4,118.1,100.5,118,100.5z"/>
				<path class="st3" d="M120.6,103.2c-0.2,0-0.4,0-0.5-0.1c-0.2-0.1-0.3-0.2-0.4-0.3c-0.1-0.1-0.2-0.3-0.3-0.4
					c-0.1-0.2-0.1-0.3-0.1-0.5s0-0.4,0.1-0.5c0.1-0.2,0.2-0.3,0.3-0.4c0.1-0.1,0.3-0.2,0.4-0.3c0.2-0.1,0.3-0.1,0.5-0.1
					c0.2,0,0.4,0,0.5,0.1c0.2,0.1,0.3,0.2,0.4,0.3c0.1,0.1,0.2,0.3,0.3,0.4c0.1,0.2,0.1,0.3,0.1,0.5c0,0.2,0,0.4-0.1,0.5
					c-0.1,0.2-0.2,0.3-0.3,0.4c-0.1,0.1-0.3,0.2-0.4,0.3C120.9,103.2,120.8,103.2,120.6,103.2z M120.6,102.9c0.1,0,0.3,0,0.4-0.1
					c0.1,0,0.2-0.1,0.3-0.2c0.1-0.1,0.2-0.2,0.2-0.3c0-0.1,0.1-0.2,0.1-0.4c0-0.1,0-0.3-0.1-0.4c0-0.1-0.1-0.2-0.2-0.3
					c-0.1-0.1-0.2-0.2-0.3-0.2c-0.1,0-0.2-0.1-0.4-0.1c-0.1,0-0.3,0-0.4,0.1c-0.1,0-0.2,0.1-0.3,0.2c-0.1,0.1-0.2,0.2-0.2,0.3
					c0,0.1-0.1,0.2-0.1,0.4c0,0.1,0,0.3,0.1,0.4c0,0.1,0.1,0.2,0.2,0.3c0.1,0.1,0.2,0.2,0.3,0.2
					C120.3,102.9,120.4,102.9,120.6,102.9z"/>
				<path class="st3" d="M123.4,103.2v-2.5h1.1c0.3,0,0.5,0.1,0.7,0.2c0.2,0.1,0.4,0.3,0.5,0.4c0.1,0.2,0.2,0.4,0.2,0.7
					s-0.1,0.5-0.2,0.7c-0.1,0.2-0.3,0.3-0.5,0.4c-0.2,0.1-0.4,0.2-0.7,0.2H123.4z M123.8,102.9h0.7c0.2,0,0.4,0,0.5-0.1
					c0.2-0.1,0.3-0.2,0.4-0.3c0.1-0.1,0.1-0.3,0.1-0.5c0-0.2,0-0.4-0.1-0.5c-0.1-0.1-0.2-0.3-0.4-0.3c-0.2-0.1-0.3-0.1-0.5-0.1h-0.7
					V102.9z"/>
				<path class="st3" d="M127.5,103.2c-0.2,0-0.4,0-0.5-0.1c-0.2-0.1-0.3-0.2-0.4-0.3c-0.1-0.1-0.2-0.3-0.3-0.4
					c-0.1-0.2-0.1-0.3-0.1-0.5s0-0.4,0.1-0.5c0.1-0.2,0.2-0.3,0.3-0.4c0.1-0.1,0.3-0.2,0.4-0.3c0.2-0.1,0.3-0.1,0.5-0.1
					c0.2,0,0.4,0,0.5,0.1c0.2,0.1,0.3,0.2,0.4,0.3c0.1,0.1,0.2,0.3,0.3,0.4c0.1,0.2,0.1,0.3,0.1,0.5c0,0.2,0,0.4-0.1,0.5
					c-0.1,0.2-0.2,0.3-0.3,0.4c-0.1,0.1-0.3,0.2-0.4,0.3C127.9,103.2,127.7,103.2,127.5,103.2z M127.5,102.9c0.1,0,0.3,0,0.4-0.1
					c0.1,0,0.2-0.1,0.3-0.2c0.1-0.1,0.2-0.2,0.2-0.3c0-0.1,0.1-0.2,0.1-0.4c0-0.1,0-0.3-0.1-0.4c0-0.1-0.1-0.2-0.2-0.3
					c-0.1-0.1-0.2-0.2-0.3-0.2c-0.1,0-0.2-0.1-0.4-0.1c-0.1,0-0.3,0-0.4,0.1c-0.1,0-0.2,0.1-0.3,0.2c-0.1,0.1-0.2,0.2-0.2,0.3
					c0,0.1-0.1,0.2-0.1,0.4c0,0.1,0,0.3,0.1,0.4c0,0.1,0.1,0.2,0.2,0.3c0.1,0.1,0.2,0.2,0.3,0.2
					C127.2,102.9,127.4,102.9,127.5,102.9z"/>
				<path class="st3" d="M130.4,103.2v-2.5h1.1c0.3,0,0.5,0.1,0.7,0.2c0.2,0.1,0.4,0.3,0.5,0.4c0.1,0.2,0.2,0.4,0.2,0.7
					s-0.1,0.5-0.2,0.7c-0.1,0.2-0.3,0.3-0.5,0.4c-0.2,0.1-0.4,0.2-0.7,0.2H130.4z M130.7,102.9h0.7c0.2,0,0.4,0,0.5-0.1
					c0.2-0.1,0.3-0.2,0.4-0.3c0.1-0.1,0.1-0.3,0.1-0.5c0-0.2,0-0.4-0.1-0.5c-0.1-0.1-0.2-0.3-0.4-0.3c-0.2-0.1-0.3-0.1-0.5-0.1h-0.7
					V102.9z"/>
				<path class="st3" d="M133.7,102.9h1.5v0.3h-1.8v-2.5h1.8v0.3h-1.4V102.9z M133.6,101.8h1.3v0.3h-1.3V101.8z"/>
				<path class="st3" d="M136.4,103.2c-0.2,0-0.4,0-0.5-0.1c-0.2-0.1-0.3-0.1-0.4-0.2l0.1-0.3c0.1,0.1,0.2,0.2,0.4,0.2
					c0.1,0.1,0.3,0.1,0.5,0.1c0.1,0,0.3,0,0.4-0.1c0.1,0,0.2-0.1,0.2-0.1c0-0.1,0.1-0.1,0.1-0.2c0-0.1,0-0.2-0.1-0.2
					c-0.1-0.1-0.1-0.1-0.2-0.1c-0.1,0-0.2-0.1-0.3-0.1c-0.1,0-0.2-0.1-0.3-0.1c-0.1,0-0.2-0.1-0.3-0.1c-0.1-0.1-0.2-0.1-0.2-0.2
					c-0.1-0.1-0.1-0.2-0.1-0.3c0-0.1,0-0.2,0.1-0.4c0.1-0.1,0.2-0.2,0.3-0.3c0.1-0.1,0.3-0.1,0.5-0.1c0.1,0,0.3,0,0.4,0.1
					c0.1,0,0.3,0.1,0.4,0.2l-0.1,0.3c-0.1-0.1-0.2-0.1-0.3-0.2c-0.1,0-0.2,0-0.3,0c-0.1,0-0.3,0-0.3,0.1c-0.1,0-0.2,0.1-0.2,0.1
					c0,0.1-0.1,0.1-0.1,0.2c0,0.1,0,0.2,0.1,0.2c0.1,0.1,0.1,0.1,0.2,0.1c0.1,0,0.2,0.1,0.3,0.1c0.1,0,0.2,0.1,0.3,0.1
					c0.1,0,0.2,0.1,0.3,0.1c0.1,0.1,0.2,0.1,0.2,0.2c0.1,0.1,0.1,0.2,0.1,0.3c0,0.1,0,0.2-0.1,0.4c-0.1,0.1-0.2,0.2-0.3,0.3
					C136.9,103.2,136.7,103.2,136.4,103.2z"/>
				<path class="st3" d="M138.3,102.9h1.5v0.3h-1.8v-2.5h1.8v0.3h-1.4V102.9z M138.3,101.8h1.3v0.3h-1.3V101.8z"/>
				<path class="st3" d="M140.3,103.2v-2.5h0.3l1.7,2.1h-0.2v-2.1h0.4v2.5h-0.3l-1.7-2.1h0.2v2.1H140.3z"/>
				<path class="st3" d="M144,103.2l-1.1-2.5h0.4l1,2.3H144l1-2.3h0.4l-1.1,2.5H144z"/>
				<path class="st3" d="M146.8,103.2c-0.2,0-0.4,0-0.5-0.1c-0.2-0.1-0.3-0.2-0.4-0.3c-0.1-0.1-0.2-0.3-0.3-0.4
					c-0.1-0.2-0.1-0.3-0.1-0.5s0-0.4,0.1-0.5c0.1-0.2,0.2-0.3,0.3-0.4c0.1-0.1,0.3-0.2,0.4-0.3c0.2-0.1,0.3-0.1,0.5-0.1
					c0.2,0,0.4,0,0.5,0.1c0.2,0.1,0.3,0.2,0.4,0.3c0.1,0.1,0.2,0.3,0.3,0.4c0.1,0.2,0.1,0.3,0.1,0.5c0,0.2,0,0.4-0.1,0.5
					c-0.1,0.2-0.2,0.3-0.3,0.4c-0.1,0.1-0.3,0.2-0.4,0.3C147.2,103.2,147,103.2,146.8,103.2z M146.8,102.9c0.1,0,0.3,0,0.4-0.1
					c0.1,0,0.2-0.1,0.3-0.2c0.1-0.1,0.2-0.2,0.2-0.3c0-0.1,0.1-0.2,0.1-0.4c0-0.1,0-0.3-0.1-0.4c0-0.1-0.1-0.2-0.2-0.3
					c-0.1-0.1-0.2-0.2-0.3-0.2c-0.1,0-0.2-0.1-0.4-0.1c-0.1,0-0.3,0-0.4,0.1c-0.1,0-0.2,0.1-0.3,0.2c-0.1,0.1-0.2,0.2-0.2,0.3
					c0,0.1-0.1,0.2-0.1,0.4c0,0.1,0,0.3,0.1,0.4c0,0.1,0.1,0.2,0.2,0.3c0.1,0.1,0.2,0.2,0.3,0.2
					C146.6,102.9,146.7,102.9,146.8,102.9z"/>
				<path class="st3" d="M148.7,103.2v-2.5h0.4v2.2h1.4v0.3H148.7z"/>
				<path class="st3" d="M151.4,103.2l-1.1-2.5h0.4l1,2.3h-0.2l1-2.3h0.4l-1.1,2.5H151.4z"/>
				<path class="st3" d="M153.2,103.2v-2.5h0.4v2.5H153.2z"/>
				<path class="st3" d="M154.3,103.2v-2.5h0.3l1.1,1.9h-0.2l1.1-1.9h0.3l0,2.5h-0.3l0-2h0.1l-1,1.7h-0.2l-1-1.7h0.1v2H154.3z"/>
				<path class="st3" d="M158.1,102.9h1.5v0.3h-1.8v-2.5h1.8v0.3h-1.4V102.9z M158,101.8h1.3v0.3H158V101.8z"/>
				<path class="st3" d="M160.1,103.2v-2.5h0.3l1.7,2.1h-0.2v-2.1h0.4v2.5H162l-1.7-2.1h0.2v2.1H160.1z"/>
				<path class="st3" d="M163.5,103.2V101h-0.9v-0.3h2.1v0.3h-0.9v2.2H163.5z"/>
				<path class="st3" d="M166.2,103.2c-0.2,0-0.4,0-0.5-0.1c-0.2-0.1-0.3-0.2-0.4-0.3c-0.1-0.1-0.2-0.3-0.3-0.4
					c-0.1-0.2-0.1-0.3-0.1-0.5s0-0.4,0.1-0.5c0.1-0.2,0.2-0.3,0.3-0.4c0.1-0.1,0.3-0.2,0.4-0.3c0.2-0.1,0.3-0.1,0.5-0.1
					c0.2,0,0.4,0,0.5,0.1c0.2,0.1,0.3,0.2,0.4,0.3c0.1,0.1,0.2,0.3,0.3,0.4c0.1,0.2,0.1,0.3,0.1,0.5c0,0.2,0,0.4-0.1,0.5
					c-0.1,0.2-0.2,0.3-0.3,0.4c-0.1,0.1-0.3,0.2-0.4,0.3C166.6,103.2,166.4,103.2,166.2,103.2z M166.2,102.9c0.1,0,0.3,0,0.4-0.1
					c0.1,0,0.2-0.1,0.3-0.2c0.1-0.1,0.2-0.2,0.2-0.3c0-0.1,0.1-0.2,0.1-0.4c0-0.1,0-0.3-0.1-0.4c0-0.1-0.1-0.2-0.2-0.3
					c-0.1-0.1-0.2-0.2-0.3-0.2c-0.1,0-0.2-0.1-0.4-0.1c-0.1,0-0.3,0-0.4,0.1c-0.1,0-0.2,0.1-0.3,0.2c-0.1,0.1-0.2,0.2-0.2,0.3
					c0,0.1-0.1,0.2-0.1,0.4c0,0.1,0,0.3,0.1,0.4c0,0.1,0.1,0.2,0.2,0.3c0.1,0.1,0.2,0.2,0.3,0.2
					C165.9,102.9,166.1,102.9,166.2,102.9z"/>
				<path class="st3" d="M169.4,103.2h-0.4v-2.5h0.4V103.2z M170.9,102.1h-1.5v-0.3h1.5V102.1z M170.9,100.7h0.4v2.5h-0.4V100.7z"/>
				<path class="st3" d="M173,103.2c-0.3,0-0.6-0.1-0.8-0.3c-0.2-0.2-0.3-0.5-0.3-0.8v-1.4h0.4v1.4c0,0.3,0.1,0.5,0.2,0.6
					c0.1,0.1,0.3,0.2,0.5,0.2c0.2,0,0.4-0.1,0.5-0.2c0.1-0.1,0.2-0.3,0.2-0.6v-1.4h0.3v1.4c0,0.4-0.1,0.6-0.3,0.8
					C173.6,103.1,173.3,103.2,173,103.2z"/>
				<path class="st3" d="M174.8,103.2v-2.5h0.3l1.1,1.9h-0.2l1.1-1.9h0.3l0,2.5h-0.3l0-2h0.1l-1,1.7h-0.2l-1-1.7h0.1v2H174.8z"/>
				<path class="st3" d="M177.9,103.2l1.1-2.5h0.4l1.1,2.5h-0.4l-1-2.3h0.1l-1,2.3H177.9z M178.3,102.6l0.1-0.3h1.4l0.1,0.3H178.3z"
					/>
				<path class="st3" d="M180.9,103.2v-2.5h0.3l1.7,2.1h-0.2v-2.1h0.4v2.5h-0.3l-1.7-2.1h0.2v2.1H180.9z"/>
				<path class="st3" d="M184.9,103.2c-0.2,0-0.4,0-0.5-0.1c-0.2-0.1-0.3-0.2-0.4-0.3c-0.1-0.1-0.2-0.3-0.3-0.4
					c-0.1-0.2-0.1-0.3-0.1-0.5s0-0.4,0.1-0.5c0.1-0.2,0.2-0.3,0.3-0.4c0.1-0.1,0.3-0.2,0.4-0.3c0.2-0.1,0.3-0.1,0.5-0.1
					c0.2,0,0.4,0,0.5,0.1c0.2,0.1,0.3,0.2,0.4,0.3c0.1,0.1,0.2,0.3,0.3,0.4c0.1,0.2,0.1,0.3,0.1,0.5c0,0.2,0,0.4-0.1,0.5
					c-0.1,0.2-0.2,0.3-0.3,0.4c-0.1,0.1-0.3,0.2-0.4,0.3C185.3,103.2,185.1,103.2,184.9,103.2z M184.9,102.9c0.1,0,0.3,0,0.4-0.1
					c0.1,0,0.2-0.1,0.3-0.2c0.1-0.1,0.2-0.2,0.2-0.3c0-0.1,0.1-0.2,0.1-0.4c0-0.1,0-0.3-0.1-0.4c0-0.1-0.1-0.2-0.2-0.3
					c-0.1-0.1-0.2-0.2-0.3-0.2c-0.1,0-0.2-0.1-0.4-0.1c-0.1,0-0.3,0-0.4,0.1c-0.1,0-0.2,0.1-0.3,0.2c-0.1,0.1-0.2,0.2-0.2,0.3
					c0,0.1-0.1,0.2-0.1,0.4c0,0.1,0,0.3,0.1,0.4c0,0.1,0.1,0.2,0.2,0.3c0.1,0.1,0.2,0.2,0.3,0.2
					C184.6,102.9,184.8,102.9,184.9,102.9z"/>
			</g>
		</g>
	</g>
	<rect x="330" y="-0.2" class="st0" width="258" height="145.1"/>
	<g id="Layer_x5F_1_00000147213025344519599360000001537948598725964474_" class="st6">
		<g id="_610717584_00000010309712825004703330000013954119591718512054_">
			<path class="st1" d="M541.9,34.1C529.1,14,495.5,2,467.4,10.6c-28.8,8.8-45.2,35.7-63.5,55.6c-19.5,21.2-46.9,27.8-39.2-11
				c-3.7,7.8-5.1,15.5-4.7,22.7c1,14.9,11.3,22.8,23.6,23.2c26,0.8,41.7-23.5,59.1-45.2C474.4,16.3,516.7,16.6,541.9,34.1z"/>
			<path class="st2" d="M370.2,102.1c8.4,9.8,21.3,16.6,36.4,18.5c42.5-1.5,57.4-25.4,69.7-47.3c22.6-39.9,55.4-6.5,21.1,1
				c-13.9,3-26.5,8-27.1,25.4c8.9-15.4,33.3-7.4,48-13.8c31.7-13.8,1.8-59.8-37.7-45.3c-30.9,11.3-33.8,45.7-60.7,58.9
				C406.9,105.9,385.7,107.5,370.2,102.1z"/>
			<path class="st3" d="M474.3,143.3c-2.7-38.3,48.6-10.4,74.4-43.7c18.9-24.4,9.7-66.3-39.8-67.9c37.7,10.2,39.6,46,19.7,59.5
				c-18.6,12.7-47.4-4-61.7,19.8C460.3,121.8,461.7,136.2,474.3,143.3z"/>
			<path class="st4" d="M475.2,1.9c-38.4-2.3-68.9,6.4-85.3,42.4c-6.6,14.5-21.9,3,3.3-20.8c-43.6,24.8-22,77.9,10.3,29.8
				C421.4,26.7,439.9,3.5,475.2,1.9z"/>
		</g>
	</g>
</g>
<g id="Principal_Ãrea_de_trabalho">
</g>
<g id="DELETE_O_GABARITO_ANTES_DO_ENVIO_1_">
	<g>
		<g>
			<circle class="st5" cx="432.2" cy="71.6" r="4"/>
			<path class="st0" d="M430.1,73.9l0.3-1.2c-0.2-0.3-0.3-0.7-0.3-1.1c0-1.3,1-2.3,2.3-2.3s2.3,1,2.3,2.3c0,1.3-1,2.3-2.3,2.3
				c-0.4,0-0.8-0.1-1.1-0.3L430.1,73.9z M431.4,73.1L431.4,73.1c0.4,0.2,0.7,0.3,1,0.3c1,0,1.8-0.8,1.8-1.8c0-1-0.8-1.8-1.8-1.8
				s-1.8,0.8-1.8,1.8c0,0.3,0.1,0.7,0.3,1l0,0.1l-0.2,0.7L431.4,73.1z"/>
			<path class="st7" d="M433.2,71.8c-0.1-0.1-0.2-0.1-0.3-0.1c-0.1,0-0.1,0.2-0.2,0.2c0,0-0.1,0-0.1,0c-0.3-0.1-0.6-0.3-0.7-0.6
				c0,0,0-0.1,0-0.1c0.1-0.1,0.1-0.1,0.1-0.2c0-0.1,0-0.2-0.1-0.3c0-0.1-0.1-0.2-0.2-0.3c-0.1,0-0.2,0-0.3,0
				c-0.1,0.1-0.2,0.3-0.2,0.5c0,0,0,0.1,0,0.1c0,0.1,0.1,0.2,0.1,0.3c0,0.1,0.1,0.1,0.1,0.2c0.2,0.2,0.4,0.4,0.6,0.6
				c0.1,0.1,0.3,0.1,0.4,0.2c0.2,0.1,0.3,0.1,0.5,0.1c0.2,0,0.3-0.1,0.4-0.3c0,0,0-0.1,0-0.2C433.5,72,433.3,71.9,433.2,71.8z"/>
		</g>
		<g>
			<g>
				<path class="st5" d="M440.2,75.1c-0.3-0.4-0.5-0.9-0.6-1.5c-0.1-0.6-0.2-1.2-0.2-1.8s0.1-1.2,0.2-1.8s0.3-1.1,0.6-1.5h0.5
					c-0.3,0.5-0.5,1-0.6,1.5c-0.1,0.5-0.2,1.1-0.2,1.7s0.1,1.2,0.2,1.7c0.1,0.5,0.3,1,0.6,1.5H440.2z"/>
				<path class="st5" d="M442.2,73.7l2.1-4.7l0.2,0.2h-3l0.3-0.2v1.2h-0.5v-1.4h3.6v0.4l-2.1,4.5H442.2z"/>
				<path class="st5" d="M447,73.7c-0.4,0-0.7-0.1-1-0.2c-0.3-0.1-0.6-0.3-0.8-0.5l0.2-0.4c0.2,0.2,0.4,0.3,0.6,0.4s0.6,0.2,0.9,0.2
					c0.4,0,0.7-0.1,0.9-0.3c0.2-0.2,0.3-0.4,0.3-0.7c0-0.2,0-0.4-0.2-0.5c-0.1-0.2-0.3-0.3-0.5-0.4c-0.2-0.1-0.6-0.1-1-0.1h-1
					l0.3-2.5h2.7v0.4h-2.5l0.3-0.2l-0.2,2.1l-0.3-0.3h0.9c0.5,0,0.9,0.1,1.2,0.2c0.3,0.1,0.5,0.3,0.6,0.5c0.1,0.2,0.2,0.5,0.2,0.8
					c0,0.3-0.1,0.5-0.2,0.8s-0.3,0.4-0.6,0.5C447.8,73.7,447.4,73.7,447,73.7z"/>
				<path class="st5" d="M449.8,75.1h-0.5c0.3-0.5,0.5-1,0.6-1.5c0.1-0.5,0.2-1.1,0.2-1.7s-0.1-1.2-0.2-1.7c-0.1-0.5-0.3-1-0.6-1.5
					h0.5c0.3,0.4,0.5,0.9,0.6,1.5c0.1,0.6,0.2,1.2,0.2,1.8s-0.1,1.2-0.2,1.8C450.3,74.1,450.1,74.6,449.8,75.1z"/>
				<path class="st5" d="M455.1,68.8c0.4,0,0.8,0.1,1.1,0.3c0.3,0.2,0.5,0.5,0.7,0.8c0.2,0.4,0.2,0.8,0.2,1.3c0,0.6-0.1,1-0.3,1.4
					c-0.2,0.4-0.5,0.7-0.8,0.9s-0.7,0.3-1.2,0.3c-0.2,0-0.4,0-0.6-0.1s-0.4-0.1-0.5-0.2l0.2-0.4c0.1,0.1,0.3,0.1,0.4,0.2
					c0.2,0,0.3,0.1,0.5,0.1c0.5,0,0.9-0.2,1.3-0.5c0.3-0.3,0.5-0.8,0.5-1.5c0-0.1,0-0.2,0-0.4s0-0.3-0.1-0.4l0.2,0.1
					c0,0.2-0.1,0.4-0.3,0.6c-0.2,0.2-0.3,0.3-0.6,0.4c-0.2,0.1-0.5,0.1-0.7,0.1c-0.3,0-0.6-0.1-0.9-0.2c-0.2-0.1-0.4-0.3-0.6-0.5
					c-0.1-0.2-0.2-0.5-0.2-0.8c0-0.3,0.1-0.6,0.2-0.8c0.1-0.2,0.3-0.4,0.6-0.5C454.5,68.8,454.8,68.8,455.1,68.8z M455.1,69.2
					c-0.2,0-0.4,0-0.6,0.1c-0.2,0.1-0.3,0.2-0.4,0.4s-0.2,0.3-0.2,0.6c0,0.3,0.1,0.6,0.3,0.8c0.2,0.2,0.5,0.3,0.9,0.3
					c0.3,0,0.5,0,0.7-0.1c0.2-0.1,0.3-0.2,0.4-0.4c0.1-0.2,0.2-0.3,0.2-0.5c0-0.2,0-0.4-0.1-0.5c-0.1-0.2-0.2-0.3-0.4-0.4
					C455.7,69.2,455.4,69.2,455.1,69.2z"/>
				<path class="st5" d="M459.7,73.7c-0.4,0-0.7-0.1-1-0.2c-0.3-0.1-0.5-0.3-0.7-0.5s-0.2-0.5-0.2-0.8c0-0.3,0.1-0.5,0.2-0.7
					c0.1-0.2,0.4-0.4,0.6-0.5s0.6-0.2,1-0.2c0.4,0,0.7,0.1,1,0.2c0.3,0.1,0.5,0.3,0.7,0.5s0.2,0.4,0.2,0.7c0,0.3-0.1,0.5-0.2,0.8
					c-0.2,0.2-0.4,0.4-0.7,0.5C460.4,73.7,460.1,73.7,459.7,73.7z M459.7,71.3c-0.4,0-0.7,0-0.9-0.1c-0.3-0.1-0.4-0.2-0.6-0.4
					c-0.1-0.2-0.2-0.4-0.2-0.7c0-0.3,0.1-0.5,0.2-0.7c0.1-0.2,0.3-0.3,0.6-0.4c0.3-0.1,0.6-0.2,0.9-0.2c0.3,0,0.6,0.1,0.9,0.2
					c0.3,0.1,0.5,0.3,0.6,0.4c0.1,0.2,0.2,0.4,0.2,0.7c0,0.3-0.1,0.5-0.2,0.7c-0.1,0.2-0.3,0.3-0.6,0.4
					C460.4,71.2,460.1,71.3,459.7,71.3z M459.7,73.3c0.4,0,0.8-0.1,1-0.3s0.4-0.4,0.4-0.7c0-0.3-0.1-0.5-0.4-0.7
					c-0.2-0.2-0.6-0.3-1-0.3c-0.4,0-0.8,0.1-1,0.3c-0.2,0.2-0.4,0.4-0.4,0.7c0,0.3,0.1,0.5,0.4,0.7S459.3,73.3,459.7,73.3z
					 M459.7,70.9c0.4,0,0.7-0.1,0.9-0.2s0.3-0.4,0.3-0.6c0-0.3-0.1-0.5-0.3-0.7c-0.2-0.2-0.5-0.2-0.9-0.2c-0.4,0-0.7,0.1-0.9,0.2
					c-0.2,0.2-0.3,0.4-0.3,0.6c0,0.3,0.1,0.5,0.3,0.6C459,70.9,459.3,70.9,459.7,70.9z"/>
				<path class="st5" d="M462.2,73.7v-0.4l2-2c0.2-0.2,0.3-0.3,0.4-0.5c0.1-0.1,0.2-0.3,0.2-0.4c0-0.1,0-0.2,0-0.3
					c0-0.3-0.1-0.5-0.3-0.7c-0.2-0.2-0.5-0.2-0.9-0.2c-0.3,0-0.5,0-0.8,0.1c-0.2,0.1-0.4,0.2-0.6,0.4l-0.4-0.3
					c0.2-0.2,0.4-0.4,0.7-0.5c0.3-0.1,0.6-0.2,1-0.2c0.3,0,0.6,0.1,0.9,0.2c0.2,0.1,0.4,0.3,0.6,0.5c0.1,0.2,0.2,0.4,0.2,0.7
					c0,0.2,0,0.3-0.1,0.5c0,0.2-0.1,0.3-0.2,0.5s-0.3,0.4-0.5,0.6l-1.9,1.8l-0.1-0.2h3v0.4H462.2z"/>
				<path class="st5" d="M468.2,73.7c-0.4,0-0.7-0.1-1-0.2c-0.3-0.1-0.5-0.3-0.7-0.5s-0.2-0.5-0.2-0.8c0-0.3,0.1-0.5,0.2-0.7
					c0.1-0.2,0.4-0.4,0.6-0.5s0.6-0.2,1-0.2c0.4,0,0.7,0.1,1,0.2c0.3,0.1,0.5,0.3,0.7,0.5s0.2,0.4,0.2,0.7c0,0.3-0.1,0.5-0.2,0.8
					c-0.2,0.2-0.4,0.4-0.7,0.5C468.9,73.7,468.6,73.7,468.2,73.7z M468.2,71.3c-0.4,0-0.7,0-0.9-0.1c-0.3-0.1-0.4-0.2-0.6-0.4
					c-0.1-0.2-0.2-0.4-0.2-0.7c0-0.3,0.1-0.5,0.2-0.7c0.1-0.2,0.3-0.3,0.6-0.4c0.3-0.1,0.6-0.2,0.9-0.2c0.3,0,0.6,0.1,0.9,0.2
					c0.3,0.1,0.5,0.3,0.6,0.4c0.1,0.2,0.2,0.4,0.2,0.7c0,0.3-0.1,0.5-0.2,0.7c-0.1,0.2-0.3,0.3-0.6,0.4
					C468.8,71.2,468.5,71.3,468.2,71.3z M468.2,73.3c0.4,0,0.8-0.1,1-0.3s0.4-0.4,0.4-0.7c0-0.3-0.1-0.5-0.4-0.7
					c-0.2-0.2-0.6-0.3-1-0.3c-0.4,0-0.8,0.1-1,0.3c-0.2,0.2-0.4,0.4-0.4,0.7c0,0.3,0.1,0.5,0.4,0.7S467.7,73.3,468.2,73.3z
					 M468.2,70.9c0.4,0,0.7-0.1,0.9-0.2s0.3-0.4,0.3-0.6c0-0.3-0.1-0.5-0.3-0.7c-0.2-0.2-0.5-0.2-0.9-0.2c-0.4,0-0.7,0.1-0.9,0.2
					c-0.2,0.2-0.3,0.4-0.3,0.6c0,0.3,0.1,0.5,0.3,0.6C467.5,70.9,467.8,70.9,468.2,70.9z"/>
				<path class="st5" d="M472.3,73.7c-0.4,0-0.7-0.1-1-0.2c-0.3-0.1-0.6-0.3-0.8-0.5l0.2-0.4c0.2,0.2,0.4,0.3,0.6,0.4
					s0.6,0.2,0.9,0.2c0.4,0,0.7-0.1,0.9-0.3c0.2-0.2,0.3-0.4,0.3-0.7c0-0.2,0-0.4-0.2-0.5c-0.1-0.2-0.3-0.3-0.5-0.4
					c-0.2-0.1-0.6-0.1-1-0.1h-1l0.3-2.5h2.7v0.4h-2.5l0.3-0.2l-0.2,2.1l-0.3-0.3h0.9c0.5,0,0.9,0.1,1.2,0.2c0.3,0.1,0.5,0.3,0.6,0.5
					c0.1,0.2,0.2,0.5,0.2,0.8c0,0.3-0.1,0.5-0.2,0.8s-0.3,0.4-0.6,0.5C473,73.7,472.7,73.7,472.3,73.7z"/>
				<path class="st5" d="M474.8,72v-0.4h1.8V72H474.8z"/>
				<path class="st5" d="M479.4,73.7c-0.4,0-0.8-0.1-1.1-0.3c-0.3-0.2-0.5-0.5-0.7-0.8c-0.2-0.4-0.2-0.8-0.2-1.3
					c0-0.6,0.1-1,0.3-1.4c0.2-0.4,0.5-0.7,0.8-0.9c0.3-0.2,0.7-0.3,1.2-0.3c0.2,0,0.4,0,0.6,0.1c0.2,0,0.4,0.1,0.5,0.2l-0.2,0.4
					c-0.1-0.1-0.3-0.1-0.4-0.2c-0.2,0-0.3-0.1-0.5-0.1c-0.5,0-0.9,0.2-1.3,0.5c-0.3,0.3-0.5,0.8-0.5,1.5c0,0.1,0,0.2,0,0.4
					c0,0.2,0,0.3,0.1,0.5l-0.2-0.1c0.1-0.2,0.2-0.4,0.3-0.6s0.3-0.3,0.6-0.4c0.2-0.1,0.5-0.1,0.7-0.1c0.3,0,0.6,0.1,0.9,0.2
					c0.2,0.1,0.4,0.3,0.6,0.5c0.1,0.2,0.2,0.5,0.2,0.8c0,0.3-0.1,0.6-0.2,0.8s-0.3,0.4-0.6,0.5C480,73.7,479.7,73.7,479.4,73.7z
					 M479.4,73.3c0.2,0,0.4,0,0.6-0.1c0.2-0.1,0.3-0.2,0.4-0.4c0.1-0.2,0.2-0.3,0.2-0.6c0-0.3-0.1-0.6-0.3-0.8
					c-0.2-0.2-0.5-0.3-0.9-0.3c-0.3,0-0.5,0-0.7,0.1c-0.2,0.1-0.3,0.2-0.4,0.4c-0.1,0.2-0.2,0.3-0.2,0.5c0,0.2,0,0.3,0.1,0.5
					c0.1,0.2,0.2,0.3,0.4,0.4C478.9,73.3,479.1,73.3,479.4,73.3z"/>
				<path class="st5" d="M483.2,68.8c0.4,0,0.8,0.1,1.1,0.3c0.3,0.2,0.5,0.5,0.7,0.8c0.2,0.4,0.2,0.8,0.2,1.3c0,0.6-0.1,1-0.3,1.4
					c-0.2,0.4-0.5,0.7-0.8,0.9s-0.7,0.3-1.2,0.3c-0.2,0-0.4,0-0.6-0.1s-0.4-0.1-0.5-0.2l0.2-0.4c0.1,0.1,0.3,0.1,0.4,0.2
					c0.2,0,0.3,0.1,0.5,0.1c0.5,0,0.9-0.2,1.3-0.5c0.3-0.3,0.5-0.8,0.5-1.5c0-0.1,0-0.2,0-0.4s0-0.3-0.1-0.4l0.2,0.1
					c0,0.2-0.1,0.4-0.3,0.6c-0.2,0.2-0.3,0.3-0.6,0.4c-0.2,0.1-0.5,0.1-0.7,0.1c-0.3,0-0.6-0.1-0.9-0.2c-0.2-0.1-0.4-0.3-0.6-0.5
					c-0.1-0.2-0.2-0.5-0.2-0.8c0-0.3,0.1-0.6,0.2-0.8c0.1-0.2,0.3-0.4,0.6-0.5C482.6,68.8,482.9,68.8,483.2,68.8z M483.2,69.2
					c-0.2,0-0.4,0-0.6,0.1c-0.2,0.1-0.3,0.2-0.4,0.4S482,70,482,70.2c0,0.3,0.1,0.6,0.3,0.8c0.2,0.2,0.5,0.3,0.9,0.3
					c0.3,0,0.5,0,0.7-0.1c0.2-0.1,0.3-0.2,0.4-0.4c0.1-0.2,0.2-0.3,0.2-0.5c0-0.2,0-0.4-0.1-0.5c-0.1-0.2-0.2-0.3-0.4-0.4
					C483.7,69.2,483.5,69.2,483.2,69.2z"/>
				<path class="st5" d="M487.9,73.7c-0.4,0-0.8-0.1-1.1-0.3c-0.3-0.2-0.5-0.5-0.7-0.8c-0.2-0.4-0.2-0.8-0.2-1.3
					c0-0.6,0.1-1,0.3-1.4c0.2-0.4,0.5-0.7,0.8-0.9c0.3-0.2,0.7-0.3,1.2-0.3c0.2,0,0.4,0,0.6,0.1c0.2,0,0.4,0.1,0.5,0.2l-0.2,0.4
					c-0.1-0.1-0.3-0.1-0.4-0.2c-0.2,0-0.3-0.1-0.5-0.1c-0.5,0-0.9,0.2-1.3,0.5c-0.3,0.3-0.5,0.8-0.5,1.5c0,0.1,0,0.2,0,0.4
					c0,0.2,0,0.3,0.1,0.5l-0.2-0.1c0.1-0.2,0.2-0.4,0.3-0.6s0.3-0.3,0.6-0.4c0.2-0.1,0.5-0.1,0.7-0.1c0.3,0,0.6,0.1,0.9,0.2
					c0.2,0.1,0.4,0.3,0.6,0.5c0.1,0.2,0.2,0.5,0.2,0.8c0,0.3-0.1,0.6-0.2,0.8s-0.3,0.4-0.6,0.5C488.5,73.7,488.3,73.7,487.9,73.7z
					 M487.9,73.3c0.2,0,0.4,0,0.6-0.1c0.2-0.1,0.3-0.2,0.4-0.4c0.1-0.2,0.2-0.3,0.2-0.6c0-0.3-0.1-0.6-0.3-0.8
					c-0.2-0.2-0.5-0.3-0.9-0.3c-0.3,0-0.5,0-0.7,0.1c-0.2,0.1-0.3,0.2-0.4,0.4c-0.1,0.2-0.2,0.3-0.2,0.5c0,0.2,0,0.3,0.1,0.5
					c0.1,0.2,0.2,0.3,0.4,0.4C487.4,73.3,487.6,73.3,487.9,73.3z"/>
				<path class="st5" d="M490.1,72.4V72l2.6-3.2h0.6l-2.6,3.2l-0.3-0.1h3.9v0.4H490.1z M492.9,73.7v-1.3l0-0.4v-1.1h0.5v2.9H492.9z"
					/>
			</g>
		</g>
	</g>
	<g>
		<g>
			<circle class="st5" cx="425.3" cy="82.6" r="4"/>
			<g>
				<g>
					<path class="st0" d="M426.6,81.1c-0.2,0-0.3,0.1-0.3,0.3c0,0.2,0.1,0.3,0.3,0.3c0.2,0,0.3-0.1,0.3-0.3
						C426.8,81.3,426.7,81.1,426.6,81.1z"/>
					<path class="st0" d="M425.3,81.5c-0.6,0-1.1,0.5-1.1,1.1c0,0.6,0.5,1.1,1.1,1.1c0.6,0,1.1-0.5,1.1-1.1
						C426.5,82,426,81.5,425.3,81.5z M425.3,83.4c-0.4,0-0.7-0.3-0.7-0.7c0-0.4,0.3-0.7,0.7-0.7s0.7,0.3,0.7,0.7
						C426.1,83,425.8,83.4,425.3,83.4z"/>
					<path class="st0" d="M426.3,85h-1.9c-0.8,0-1.4-0.6-1.4-1.4v-1.9c0-0.8,0.6-1.4,1.4-1.4h1.9c0.8,0,1.4,0.6,1.4,1.4v1.9
						C427.7,84.3,427,85,426.3,85z M424.4,80.7c-0.5,0-1,0.4-1,1v1.9c0,0.5,0.4,1,1,1h1.9c0.5,0,1-0.4,1-1v-1.9c0-0.5-0.4-1-1-1
						H424.4z"/>
				</g>
			</g>
		</g>
		<g>
			<g>
				<path class="st5" d="M435.4,86.1c-0.5,0-0.9-0.1-1.3-0.2s-0.7-0.4-1-0.7s-0.5-0.6-0.7-1s-0.2-0.8-0.2-1.3c0-0.5,0.1-0.9,0.2-1.3
					c0.2-0.4,0.4-0.7,0.7-1c0.3-0.3,0.6-0.5,1-0.7s0.8-0.2,1.3-0.2c0.5,0,0.9,0.1,1.3,0.2s0.7,0.4,1,0.6c0.3,0.3,0.5,0.6,0.7,1
					s0.2,0.8,0.2,1.3c0,0.4,0,0.7-0.1,1c-0.1,0.3-0.2,0.5-0.4,0.7s-0.4,0.2-0.6,0.2c-0.2,0-0.4-0.1-0.6-0.2s-0.2-0.3-0.2-0.6v-0.6
					l0.1-0.4l-0.1-0.7v-1.1h0.5v2.7c0,0.2,0,0.3,0.1,0.4c0.1,0.1,0.2,0.1,0.3,0.1c0.1,0,0.3-0.1,0.4-0.2c0.1-0.1,0.2-0.3,0.2-0.5
					c0.1-0.2,0.1-0.5,0.1-0.8c0-0.4-0.1-0.8-0.2-1.1c-0.1-0.3-0.3-0.6-0.6-0.9c-0.3-0.2-0.6-0.4-0.9-0.6c-0.3-0.1-0.7-0.2-1.2-0.2
					s-0.8,0.1-1.2,0.2c-0.4,0.1-0.7,0.3-0.9,0.6c-0.3,0.2-0.5,0.5-0.6,0.9s-0.2,0.7-0.2,1.1c0,0.4,0.1,0.8,0.2,1.1s0.3,0.6,0.6,0.9
					c0.3,0.2,0.6,0.4,0.9,0.6c0.3,0.1,0.7,0.2,1.2,0.2c0.2,0,0.4,0,0.7-0.1c0.2-0.1,0.5-0.1,0.7-0.2l0.1,0.3
					c-0.2,0.1-0.4,0.2-0.7,0.2C435.9,86.1,435.6,86.1,435.4,86.1z M435.3,84.8c-0.3,0-0.6-0.1-0.9-0.2s-0.5-0.4-0.6-0.6
					c-0.2-0.3-0.2-0.6-0.2-0.9c0-0.4,0.1-0.7,0.2-0.9c0.2-0.3,0.4-0.5,0.6-0.6s0.6-0.2,0.9-0.2c0.3,0,0.6,0.1,0.9,0.2
					c0.2,0.1,0.4,0.4,0.6,0.6c0.1,0.3,0.2,0.6,0.2,1c0,0.4-0.1,0.7-0.2,1c-0.1,0.3-0.3,0.5-0.6,0.6
					C435.9,84.7,435.7,84.8,435.3,84.8z M435.4,84.3c0.3,0,0.5-0.1,0.7-0.2c0.2-0.1,0.4-0.3,0.5-0.5c0.1-0.2,0.2-0.5,0.2-0.7
					c0-0.3-0.1-0.5-0.2-0.7c-0.1-0.2-0.3-0.4-0.5-0.5s-0.4-0.2-0.7-0.2c-0.3,0-0.5,0.1-0.7,0.2c-0.2,0.1-0.4,0.3-0.5,0.5
					c-0.1,0.2-0.2,0.5-0.2,0.7c0,0.3,0.1,0.5,0.2,0.7c0.1,0.2,0.3,0.4,0.5,0.5C434.9,84.3,435.1,84.3,435.4,84.3z"/>
				<path class="st5" d="M440.8,84.8c-0.3,0-0.5,0-0.7-0.1s-0.4-0.2-0.5-0.4s-0.2-0.3-0.2-0.6c0-0.2,0-0.4,0.1-0.5
					c0.1-0.2,0.2-0.3,0.4-0.4c0.2-0.1,0.5-0.1,0.8-0.1h1.3V83h-1.3c-0.4,0-0.6,0.1-0.7,0.2s-0.2,0.3-0.2,0.5c0,0.2,0.1,0.4,0.2,0.5
					s0.4,0.2,0.7,0.2c0.3,0,0.5-0.1,0.7-0.2c0.2-0.1,0.4-0.3,0.4-0.6l0.1,0.3c-0.1,0.2-0.3,0.4-0.5,0.6
					C441.4,84.7,441.1,84.8,440.8,84.8z M442,84.7v-0.8l0-0.1v-1.4c0-0.3-0.1-0.6-0.3-0.7c-0.2-0.2-0.4-0.3-0.8-0.3
					c-0.2,0-0.5,0-0.7,0.1c-0.2,0.1-0.4,0.2-0.5,0.3l-0.2-0.4c0.2-0.2,0.4-0.3,0.7-0.4c0.3-0.1,0.5-0.1,0.8-0.1
					c0.5,0,0.8,0.1,1.1,0.4c0.3,0.2,0.4,0.6,0.4,1.1v2.3H442z"/>
				<path class="st5" d="M443.3,81.5V81h2.3v0.4H443.3z M445,84.8c-0.3,0-0.6-0.1-0.8-0.3c-0.2-0.2-0.3-0.5-0.3-0.8v-3.5h0.5v3.4
					c0,0.2,0.1,0.4,0.2,0.5c0.1,0.1,0.3,0.2,0.5,0.2c0.2,0,0.4-0.1,0.5-0.2l0.2,0.4c-0.1,0.1-0.2,0.2-0.4,0.2S445.2,84.8,445,84.8z"
					/>
				<path class="st5" d="M446.1,81.5V81h2.3v0.4H446.1z M447.9,84.8c-0.3,0-0.6-0.1-0.8-0.3c-0.2-0.2-0.3-0.5-0.3-0.8v-3.5h0.5v3.4
					c0,0.2,0.1,0.4,0.2,0.5c0.1,0.1,0.3,0.2,0.5,0.2c0.2,0,0.4-0.1,0.5-0.2l0.2,0.4c-0.1,0.1-0.2,0.2-0.4,0.2S448,84.8,447.9,84.8z"
					/>
				<path class="st5" d="M451.1,84.8c-0.4,0-0.7-0.1-1-0.2s-0.5-0.4-0.7-0.7c-0.2-0.3-0.2-0.6-0.2-1s0.1-0.7,0.2-1s0.4-0.5,0.6-0.7
					c0.3-0.2,0.6-0.2,0.9-0.2c0.3,0,0.7,0.1,0.9,0.2c0.3,0.2,0.5,0.4,0.6,0.7c0.2,0.3,0.2,0.6,0.2,1c0,0,0,0,0,0.1c0,0,0,0.1,0,0.1
					h-3.2v-0.4h2.9l-0.2,0.1c0-0.3-0.1-0.5-0.2-0.7s-0.3-0.4-0.5-0.5c-0.2-0.1-0.4-0.2-0.7-0.2c-0.3,0-0.5,0.1-0.7,0.2
					c-0.2,0.1-0.4,0.3-0.5,0.5c-0.1,0.2-0.2,0.5-0.2,0.7v0.1c0,0.3,0.1,0.5,0.2,0.7c0.1,0.2,0.3,0.4,0.5,0.5s0.5,0.2,0.8,0.2
					c0.2,0,0.4,0,0.6-0.1c0.2-0.1,0.4-0.2,0.5-0.4l0.3,0.3c-0.2,0.2-0.4,0.3-0.6,0.4C451.7,84.7,451.4,84.8,451.1,84.8z"/>
				<path class="st5" d="M455.7,81c0.3,0,0.6,0.1,0.8,0.2s0.4,0.3,0.5,0.5c0.1,0.2,0.2,0.5,0.2,0.9v2.1h-0.5v-2.1
					c0-0.4-0.1-0.7-0.3-0.9c-0.2-0.2-0.5-0.3-0.8-0.3c-0.3,0-0.5,0.1-0.7,0.2c-0.2,0.1-0.3,0.3-0.4,0.5c-0.1,0.2-0.2,0.4-0.2,0.7
					v1.9h-0.5V81h0.5v1l-0.1-0.2c0.1-0.3,0.3-0.5,0.6-0.6C455,81.1,455.3,81,455.7,81z"/>
				<path class="st5" d="M457.9,81.5V81h2.3v0.4H457.9z M459.7,84.8c-0.3,0-0.6-0.1-0.8-0.3c-0.2-0.2-0.3-0.5-0.3-0.8v-3.5h0.5v3.4
					c0,0.2,0.1,0.4,0.2,0.5c0.1,0.1,0.3,0.2,0.5,0.2c0.2,0,0.4-0.1,0.5-0.2l0.2,0.4c-0.1,0.1-0.2,0.2-0.4,0.2S459.8,84.8,459.7,84.8
					z"/>
				<path class="st5" d="M462.8,84.8c-0.4,0-0.7-0.1-1-0.2c-0.3-0.2-0.5-0.4-0.7-0.7c-0.2-0.3-0.2-0.6-0.2-1c0-0.4,0.1-0.7,0.2-1
					c0.2-0.3,0.4-0.5,0.7-0.7c0.3-0.2,0.6-0.2,1-0.2c0.4,0,0.7,0.1,1,0.2c0.3,0.2,0.5,0.4,0.7,0.7c0.2,0.3,0.2,0.6,0.2,1
					c0,0.4-0.1,0.7-0.2,1s-0.4,0.5-0.7,0.7C463.5,84.7,463.2,84.8,462.8,84.8z M462.8,84.3c0.3,0,0.5-0.1,0.7-0.2
					c0.2-0.1,0.4-0.3,0.5-0.5c0.1-0.2,0.2-0.5,0.2-0.8c0-0.3-0.1-0.5-0.2-0.8s-0.3-0.4-0.5-0.5c-0.2-0.1-0.4-0.2-0.7-0.2
					c-0.3,0-0.5,0.1-0.7,0.2c-0.2,0.1-0.4,0.3-0.5,0.5s-0.2,0.5-0.2,0.8c0,0.3,0.1,0.5,0.2,0.8c0.1,0.2,0.3,0.4,0.5,0.5
					S462.6,84.3,462.8,84.3z"/>
				<path class="st5" d="M467.3,84.8c-0.4,0-0.7-0.1-1-0.2s-0.5-0.4-0.7-0.7c-0.2-0.3-0.2-0.6-0.2-1c0-0.4,0.1-0.7,0.2-1
					c0.2-0.3,0.4-0.5,0.7-0.7s0.6-0.2,1-0.2c0.3,0,0.6,0.1,0.8,0.2c0.3,0.1,0.5,0.3,0.6,0.5l-0.4,0.3c-0.1-0.2-0.3-0.3-0.5-0.4
					s-0.4-0.1-0.6-0.1c-0.3,0-0.5,0.1-0.7,0.2c-0.2,0.1-0.4,0.3-0.5,0.5s-0.2,0.5-0.2,0.8s0.1,0.5,0.2,0.8s0.3,0.4,0.5,0.5
					s0.4,0.2,0.7,0.2c0.2,0,0.4,0,0.6-0.1c0.2-0.1,0.3-0.2,0.5-0.4l0.4,0.3c-0.1,0.2-0.3,0.4-0.6,0.5
					C467.9,84.7,467.6,84.8,467.3,84.8z"/>
				<path class="st5" d="M469.7,84.7v-5.2h0.5v5.2H469.7z"/>
				<path class="st5" d="M471.8,80.2c-0.1,0-0.2,0-0.3-0.1c-0.1-0.1-0.1-0.2-0.1-0.3s0-0.2,0.1-0.2c0.1-0.1,0.2-0.1,0.3-0.1
					s0.2,0,0.3,0.1s0.1,0.1,0.1,0.2c0,0.1,0,0.2-0.1,0.3C472,80.2,471.9,80.2,471.8,80.2z M471.6,84.7V81h0.5v3.7H471.6z"/>
				<path class="st5" d="M475.3,81c0.3,0,0.6,0.1,0.8,0.2s0.4,0.3,0.5,0.5c0.1,0.2,0.2,0.5,0.2,0.9v2.1h-0.5v-2.1
					c0-0.4-0.1-0.7-0.3-0.9c-0.2-0.2-0.5-0.3-0.8-0.3c-0.3,0-0.5,0.1-0.7,0.2c-0.2,0.1-0.3,0.3-0.4,0.5c-0.1,0.2-0.2,0.4-0.2,0.7
					v1.9h-0.5V81h0.5v1l-0.1-0.2c0.1-0.3,0.3-0.5,0.6-0.6C474.7,81.1,475,81,475.3,81z"/>
				<path class="st5" d="M478.4,80.2c-0.1,0-0.2,0-0.3-0.1c-0.1-0.1-0.1-0.2-0.1-0.3s0-0.2,0.1-0.2c0.1-0.1,0.2-0.1,0.3-0.1
					s0.2,0,0.3,0.1s0.1,0.1,0.1,0.2c0,0.1,0,0.2-0.1,0.3C478.6,80.2,478.5,80.2,478.4,80.2z M478.2,84.7V81h0.5v3.7H478.2z"/>
				<path class="st5" d="M481.6,84.8c-0.4,0-0.7-0.1-1-0.2s-0.5-0.4-0.7-0.7c-0.2-0.3-0.2-0.6-0.2-1c0-0.4,0.1-0.7,0.2-1
					c0.2-0.3,0.4-0.5,0.7-0.7s0.6-0.2,1-0.2c0.3,0,0.6,0.1,0.8,0.2c0.3,0.1,0.5,0.3,0.6,0.5l-0.4,0.3c-0.1-0.2-0.3-0.3-0.5-0.4
					s-0.4-0.1-0.6-0.1c-0.3,0-0.5,0.1-0.7,0.2c-0.2,0.1-0.4,0.3-0.5,0.5s-0.2,0.5-0.2,0.8s0.1,0.5,0.2,0.8s0.3,0.4,0.5,0.5
					s0.4,0.2,0.7,0.2c0.2,0,0.4,0,0.6-0.1c0.2-0.1,0.3-0.2,0.5-0.4L483,84c-0.1,0.2-0.3,0.4-0.6,0.5
					C482.2,84.7,481.9,84.8,481.6,84.8z"/>
				<path class="st5" d="M485,84.8c-0.3,0-0.5,0-0.7-0.1s-0.4-0.2-0.5-0.4s-0.2-0.3-0.2-0.6c0-0.2,0-0.4,0.1-0.5
					c0.1-0.2,0.2-0.3,0.4-0.4c0.2-0.1,0.5-0.1,0.8-0.1h1.3V83h-1.3c-0.4,0-0.6,0.1-0.7,0.2s-0.2,0.3-0.2,0.5c0,0.2,0.1,0.4,0.2,0.5
					s0.4,0.2,0.7,0.2c0.3,0,0.5-0.1,0.7-0.2c0.2-0.1,0.4-0.3,0.4-0.6l0.1,0.3c-0.1,0.2-0.3,0.4-0.5,0.6
					C485.7,84.7,485.4,84.8,485,84.8z M486.3,84.7v-0.8l0-0.1v-1.4c0-0.3-0.1-0.6-0.3-0.7c-0.2-0.2-0.4-0.3-0.8-0.3
					c-0.2,0-0.5,0-0.7,0.1c-0.2,0.1-0.4,0.2-0.5,0.3l-0.2-0.4c0.2-0.2,0.4-0.3,0.7-0.4c0.3-0.1,0.5-0.1,0.8-0.1
					c0.5,0,0.8,0.1,1.1,0.4c0.3,0.2,0.4,0.6,0.4,1.1v2.3H486.3z"/>
				<path class="st5" d="M489.6,84.8c-0.4,0-0.7-0.1-0.9-0.2c-0.3-0.2-0.5-0.4-0.7-0.7c-0.2-0.3-0.2-0.6-0.2-1c0-0.4,0.1-0.7,0.2-1
					c0.2-0.3,0.4-0.5,0.7-0.7c0.3-0.2,0.6-0.2,0.9-0.2c0.3,0,0.6,0.1,0.9,0.2c0.3,0.1,0.5,0.4,0.6,0.6c0.2,0.3,0.2,0.6,0.2,1
					c0,0.4-0.1,0.7-0.2,1c-0.1,0.3-0.4,0.5-0.6,0.6C490.2,84.7,489.9,84.8,489.6,84.8z M489.6,84.3c0.3,0,0.5-0.1,0.7-0.2
					s0.4-0.3,0.5-0.5c0.1-0.2,0.2-0.5,0.2-0.8c0-0.3-0.1-0.5-0.2-0.8s-0.3-0.4-0.5-0.5c-0.2-0.1-0.4-0.2-0.7-0.2
					c-0.3,0-0.5,0.1-0.7,0.2c-0.2,0.1-0.4,0.3-0.5,0.5s-0.2,0.5-0.2,0.8c0,0.3,0.1,0.5,0.2,0.8c0.1,0.2,0.3,0.4,0.5,0.5
					S489.4,84.3,489.6,84.3z M491,84.7v-1.1l0-0.7l-0.1-0.7v-2.6h0.5v5.2H491z"/>
				<path class="st5" d="M494.8,81c0.3,0,0.6,0.1,0.8,0.2s0.4,0.3,0.5,0.5c0.1,0.2,0.2,0.5,0.2,0.9v2.1h-0.5v-2.1
					c0-0.4-0.1-0.7-0.3-0.9c-0.2-0.2-0.5-0.3-0.8-0.3c-0.3,0-0.5,0.1-0.7,0.2c-0.2,0.1-0.3,0.3-0.4,0.5c-0.1,0.2-0.2,0.4-0.2,0.7
					v1.9h-0.5v-5.2h0.5v2.5l-0.1-0.2c0.1-0.3,0.3-0.5,0.6-0.6C494.1,81.1,494.4,81,494.8,81z"/>
			</g>
		</g>
	</g>
	<g>
		<g>
			<circle class="st5" cx="406.7" cy="93.7" r="4"/>
			<g>
				<path class="st0" d="M404.5,91.7l1.8,2.1c0.1,0.1,0.3,0.2,0.4,0.2c0.2,0,0.3-0.1,0.4-0.2l1.8-2.1c0,0,0,0,0.1,0
					c-0.1,0-0.2-0.1-0.3-0.1h-4C404.6,91.6,404.5,91.6,404.5,91.7C404.5,91.7,404.5,91.7,404.5,91.7z"/>
				<path class="st0" d="M409.3,91.9C409.3,91.9,409.3,92,409.3,91.9l-1.8,2.1c-0.2,0.2-0.4,0.3-0.7,0.3c-0.3,0-0.5-0.1-0.7-0.3
					l-1.8-2.1c0,0,0,0,0,0c-0.1,0.1-0.1,0.2-0.1,0.3v2.8c0,0.3,0.3,0.6,0.6,0.6h4c0.3,0,0.6-0.3,0.6-0.6v-2.8
					C409.4,92.1,409.3,92,409.3,91.9z"/>
			</g>
		</g>
		<g>
			<g>
				<path class="st5" d="M414.9,95.8c-0.3,0-0.5,0-0.7-0.1s-0.4-0.2-0.5-0.4s-0.2-0.3-0.2-0.6c0-0.2,0-0.4,0.1-0.5s0.2-0.3,0.4-0.4
					c0.2-0.1,0.5-0.1,0.8-0.1h1.3V94H415c-0.4,0-0.6,0.1-0.7,0.2s-0.2,0.3-0.2,0.5c0,0.2,0.1,0.4,0.2,0.5s0.4,0.2,0.7,0.2
					c0.3,0,0.5-0.1,0.7-0.2c0.2-0.1,0.4-0.3,0.4-0.6l0.1,0.3c-0.1,0.2-0.3,0.4-0.5,0.6C415.6,95.7,415.3,95.8,414.9,95.8z
					 M416.2,95.7v-0.8l0-0.1v-1.4c0-0.3-0.1-0.6-0.3-0.7c-0.2-0.2-0.4-0.3-0.8-0.3c-0.2,0-0.5,0-0.7,0.1s-0.4,0.2-0.5,0.3l-0.2-0.4
					c0.2-0.2,0.4-0.3,0.7-0.4c0.3-0.1,0.5-0.1,0.8-0.1c0.5,0,0.8,0.1,1.1,0.4c0.3,0.2,0.4,0.6,0.4,1.1v2.3H416.2z"/>
				<path class="st5" d="M417.5,92.5v-0.4h2.3v0.4H417.5z M419.2,95.8c-0.3,0-0.6-0.1-0.8-0.3s-0.3-0.5-0.3-0.8v-3.5h0.5v3.4
					c0,0.2,0.1,0.4,0.2,0.5c0.1,0.1,0.3,0.2,0.5,0.2c0.2,0,0.4-0.1,0.5-0.2l0.2,0.4c-0.1,0.1-0.2,0.2-0.4,0.2S419.3,95.8,419.2,95.8
					z"/>
				<path class="st5" d="M420.3,92.5v-0.4h2.3v0.4H420.3z M422,95.8c-0.3,0-0.6-0.1-0.8-0.3S421,95,421,94.7v-3.5h0.5v3.4
					c0,0.2,0.1,0.4,0.2,0.5c0.1,0.1,0.3,0.2,0.5,0.2c0.2,0,0.4-0.1,0.5-0.2l0.2,0.4c-0.1,0.1-0.2,0.2-0.4,0.2S422.2,95.8,422,95.8z"
					/>
				<path class="st5" d="M425.3,95.8c-0.4,0-0.7-0.1-1-0.2s-0.5-0.4-0.7-0.7c-0.2-0.3-0.2-0.6-0.2-1c0-0.4,0.1-0.7,0.2-1
					c0.2-0.3,0.4-0.5,0.6-0.7c0.3-0.2,0.6-0.2,0.9-0.2c0.3,0,0.7,0.1,0.9,0.2c0.3,0.2,0.5,0.4,0.6,0.7c0.2,0.3,0.2,0.6,0.2,1
					c0,0,0,0,0,0.1c0,0,0,0.1,0,0.1h-3.2v-0.4h2.9l-0.2,0.1c0-0.3-0.1-0.5-0.2-0.7c-0.1-0.2-0.3-0.4-0.5-0.5
					c-0.2-0.1-0.4-0.2-0.7-0.2c-0.3,0-0.5,0.1-0.7,0.2c-0.2,0.1-0.4,0.3-0.5,0.5c-0.1,0.2-0.2,0.5-0.2,0.7v0.1
					c0,0.3,0.1,0.5,0.2,0.7c0.1,0.2,0.3,0.4,0.5,0.5s0.5,0.2,0.8,0.2c0.2,0,0.4,0,0.6-0.1s0.4-0.2,0.5-0.4l0.3,0.3
					c-0.2,0.2-0.4,0.3-0.6,0.4S425.6,95.8,425.3,95.8z"/>
				<path class="st5" d="M429.8,92c0.3,0,0.6,0.1,0.8,0.2s0.4,0.3,0.5,0.5c0.1,0.2,0.2,0.5,0.2,0.9v2.1h-0.5v-2.1
					c0-0.4-0.1-0.7-0.3-0.9c-0.2-0.2-0.5-0.3-0.8-0.3c-0.3,0-0.5,0.1-0.7,0.2c-0.2,0.1-0.3,0.3-0.4,0.5c-0.1,0.2-0.2,0.4-0.2,0.7
					v1.9H428v-3.7h0.5v1l-0.1-0.2c0.1-0.3,0.3-0.5,0.6-0.6C429.2,92.1,429.5,92,429.8,92z"/>
				<path class="st5" d="M432.1,92.5v-0.4h2.3v0.4H432.1z M433.8,95.8c-0.3,0-0.6-0.1-0.8-0.3s-0.3-0.5-0.3-0.8v-3.5h0.5v3.4
					c0,0.2,0.1,0.4,0.2,0.5c0.1,0.1,0.3,0.2,0.5,0.2c0.2,0,0.4-0.1,0.5-0.2l0.2,0.4c-0.1,0.1-0.2,0.2-0.4,0.2S434,95.8,433.8,95.8z"
					/>
				<path class="st5" d="M437,95.8c-0.4,0-0.7-0.1-1-0.2c-0.3-0.2-0.5-0.4-0.7-0.7c-0.2-0.3-0.2-0.6-0.2-1c0-0.4,0.1-0.7,0.2-1
					c0.2-0.3,0.4-0.5,0.7-0.7c0.3-0.2,0.6-0.2,1-0.2c0.4,0,0.7,0.1,1,0.2s0.5,0.4,0.7,0.7s0.2,0.6,0.2,1c0,0.4-0.1,0.7-0.2,1
					c-0.2,0.3-0.4,0.5-0.7,0.7C437.7,95.7,437.4,95.8,437,95.8z M437,95.3c0.3,0,0.5-0.1,0.7-0.2c0.2-0.1,0.4-0.3,0.5-0.5
					s0.2-0.5,0.2-0.8c0-0.3-0.1-0.5-0.2-0.8c-0.1-0.2-0.3-0.4-0.5-0.5c-0.2-0.1-0.4-0.2-0.7-0.2c-0.3,0-0.5,0.1-0.7,0.2
					s-0.4,0.3-0.5,0.5c-0.1,0.2-0.2,0.5-0.2,0.8c0,0.3,0.1,0.5,0.2,0.8s0.3,0.4,0.5,0.5S436.8,95.3,437,95.3z"/>
				<path class="st5" d="M441.4,95.8c-0.4,0-0.7-0.1-1-0.2s-0.5-0.4-0.7-0.7c-0.2-0.3-0.2-0.6-0.2-1c0-0.4,0.1-0.7,0.2-1
					c0.2-0.3,0.4-0.5,0.7-0.7c0.3-0.2,0.6-0.2,1-0.2c0.3,0,0.6,0.1,0.8,0.2s0.5,0.3,0.6,0.5l-0.4,0.3c-0.1-0.2-0.3-0.3-0.5-0.4
					c-0.2-0.1-0.4-0.1-0.6-0.1c-0.3,0-0.5,0.1-0.7,0.2s-0.4,0.3-0.5,0.5c-0.1,0.2-0.2,0.5-0.2,0.8c0,0.3,0.1,0.5,0.2,0.8
					s0.3,0.4,0.5,0.5s0.4,0.2,0.7,0.2c0.2,0,0.4,0,0.6-0.1s0.3-0.2,0.5-0.4l0.4,0.3c-0.1,0.2-0.3,0.4-0.6,0.5
					C442,95.7,441.8,95.8,441.4,95.8z"/>
				<path class="st5" d="M443.9,95.7v-5.2h0.5v5.2H443.9z"/>
				<path class="st5" d="M446,91.3c-0.1,0-0.2,0-0.3-0.1c-0.1-0.1-0.1-0.2-0.1-0.3c0-0.1,0-0.2,0.1-0.2c0.1-0.1,0.2-0.1,0.3-0.1
					s0.2,0,0.3,0.1c0.1,0.1,0.1,0.1,0.1,0.2c0,0.1,0,0.2-0.1,0.3C446.2,91.2,446.1,91.3,446,91.3z M445.7,95.7v-3.7h0.5v3.7H445.7z"
					/>
				<path class="st5" d="M449.5,92c0.3,0,0.6,0.1,0.8,0.2s0.4,0.3,0.5,0.5c0.1,0.2,0.2,0.5,0.2,0.9v2.1h-0.5v-2.1
					c0-0.4-0.1-0.7-0.3-0.9c-0.2-0.2-0.5-0.3-0.8-0.3c-0.3,0-0.5,0.1-0.7,0.2c-0.2,0.1-0.3,0.3-0.4,0.5c-0.1,0.2-0.2,0.4-0.2,0.7
					v1.9h-0.5v-3.7h0.5v1l-0.1-0.2c0.1-0.3,0.3-0.5,0.6-0.6C448.8,92.1,449.1,92,449.5,92z"/>
				<path class="st5" d="M452.6,91.3c-0.1,0-0.2,0-0.3-0.1c-0.1-0.1-0.1-0.2-0.1-0.3c0-0.1,0-0.2,0.1-0.2c0.1-0.1,0.2-0.1,0.3-0.1
					s0.2,0,0.3,0.1c0.1,0.1,0.1,0.1,0.1,0.2c0,0.1,0,0.2-0.1,0.3C452.8,91.2,452.7,91.3,452.6,91.3z M452.4,95.7v-3.7h0.5v3.7H452.4
					z"/>
				<path class="st5" d="M455.8,95.8c-0.4,0-0.7-0.1-1-0.2s-0.5-0.4-0.7-0.7c-0.2-0.3-0.2-0.6-0.2-1c0-0.4,0.1-0.7,0.2-1
					c0.2-0.3,0.4-0.5,0.7-0.7c0.3-0.2,0.6-0.2,1-0.2c0.3,0,0.6,0.1,0.8,0.2s0.5,0.3,0.6,0.5l-0.4,0.3c-0.1-0.2-0.3-0.3-0.5-0.4
					c-0.2-0.1-0.4-0.1-0.6-0.1c-0.3,0-0.5,0.1-0.7,0.2s-0.4,0.3-0.5,0.5c-0.1,0.2-0.2,0.5-0.2,0.8c0,0.3,0.1,0.5,0.2,0.8
					s0.3,0.4,0.5,0.5s0.4,0.2,0.7,0.2c0.2,0,0.4,0,0.6-0.1s0.3-0.2,0.5-0.4l0.4,0.3c-0.1,0.2-0.3,0.4-0.6,0.5
					C456.4,95.7,456.1,95.8,455.8,95.8z"/>
				<path class="st5" d="M459.2,95.8c-0.3,0-0.5,0-0.7-0.1s-0.4-0.2-0.5-0.4s-0.2-0.3-0.2-0.6c0-0.2,0-0.4,0.1-0.5s0.2-0.3,0.4-0.4
					c0.2-0.1,0.5-0.1,0.8-0.1h1.3V94h-1.3c-0.4,0-0.6,0.1-0.7,0.2s-0.2,0.3-0.2,0.5c0,0.2,0.1,0.4,0.2,0.5s0.4,0.2,0.7,0.2
					c0.3,0,0.5-0.1,0.7-0.2c0.2-0.1,0.4-0.3,0.4-0.6l0.1,0.3c-0.1,0.2-0.3,0.4-0.5,0.6C459.9,95.7,459.6,95.8,459.2,95.8z
					 M460.5,95.7v-0.8l0-0.1v-1.4c0-0.3-0.1-0.6-0.3-0.7c-0.2-0.2-0.4-0.3-0.8-0.3c-0.2,0-0.5,0-0.7,0.1s-0.4,0.2-0.5,0.3l-0.2-0.4
					c0.2-0.2,0.4-0.3,0.7-0.4c0.3-0.1,0.5-0.1,0.8-0.1c0.5,0,0.8,0.1,1.1,0.4c0.3,0.2,0.4,0.6,0.4,1.1v2.3H460.5z"/>
				<path class="st5" d="M463.8,95.8c-0.4,0-0.7-0.1-0.9-0.2c-0.3-0.2-0.5-0.4-0.7-0.7c-0.2-0.3-0.2-0.6-0.2-1c0-0.4,0.1-0.7,0.2-1
					c0.2-0.3,0.4-0.5,0.7-0.7c0.3-0.2,0.6-0.2,0.9-0.2c0.3,0,0.6,0.1,0.9,0.2c0.3,0.1,0.5,0.4,0.6,0.6c0.2,0.3,0.2,0.6,0.2,1
					c0,0.4-0.1,0.7-0.2,1s-0.4,0.5-0.6,0.6C464.4,95.7,464.1,95.8,463.8,95.8z M463.8,95.3c0.3,0,0.5-0.1,0.7-0.2s0.4-0.3,0.5-0.5
					s0.2-0.5,0.2-0.8c0-0.3-0.1-0.5-0.2-0.8c-0.1-0.2-0.3-0.4-0.5-0.5s-0.4-0.2-0.7-0.2c-0.3,0-0.5,0.1-0.7,0.2s-0.4,0.3-0.5,0.5
					c-0.1,0.2-0.2,0.5-0.2,0.8c0,0.3,0.1,0.5,0.2,0.8s0.3,0.4,0.5,0.5S463.5,95.3,463.8,95.3z M465.2,95.7v-1.1l0-0.7l-0.1-0.7v-2.6
					h0.5v5.2H465.2z"/>
				<path class="st5" d="M468.9,92c0.3,0,0.6,0.1,0.8,0.2s0.4,0.3,0.5,0.5c0.1,0.2,0.2,0.5,0.2,0.9v2.1h-0.5v-2.1
					c0-0.4-0.1-0.7-0.3-0.9c-0.2-0.2-0.5-0.3-0.8-0.3c-0.3,0-0.5,0.1-0.7,0.2c-0.2,0.1-0.3,0.3-0.4,0.5c-0.1,0.2-0.2,0.4-0.2,0.7
					v1.9h-0.5v-5.2h0.5v2.5l-0.1-0.2c0.1-0.3,0.3-0.5,0.6-0.6C468.3,92.1,468.6,92,468.9,92z"/>
				<path class="st5" d="M474.7,97.1c-0.5,0-0.9-0.1-1.3-0.2s-0.7-0.4-1-0.7c-0.3-0.3-0.5-0.6-0.7-1s-0.2-0.8-0.2-1.3
					c0-0.5,0.1-0.9,0.2-1.3s0.4-0.7,0.7-1s0.6-0.5,1-0.7c0.4-0.2,0.8-0.2,1.3-0.2c0.5,0,0.9,0.1,1.3,0.2s0.7,0.4,1,0.6
					c0.3,0.3,0.5,0.6,0.7,1s0.2,0.8,0.2,1.3c0,0.4,0,0.7-0.1,1s-0.2,0.5-0.4,0.7c-0.2,0.2-0.4,0.2-0.6,0.2c-0.2,0-0.4-0.1-0.6-0.2
					c-0.1-0.1-0.2-0.3-0.2-0.6v-0.6l0.1-0.4l-0.1-0.7v-1.1h0.5v2.7c0,0.2,0,0.3,0.1,0.4s0.2,0.1,0.3,0.1c0.1,0,0.3-0.1,0.4-0.2
					c0.1-0.1,0.2-0.3,0.2-0.5c0.1-0.2,0.1-0.5,0.1-0.8c0-0.4-0.1-0.8-0.2-1.1c-0.1-0.3-0.3-0.6-0.6-0.9c-0.3-0.2-0.6-0.4-0.9-0.6
					c-0.3-0.1-0.7-0.2-1.2-0.2s-0.8,0.1-1.2,0.2c-0.4,0.1-0.7,0.3-0.9,0.6c-0.3,0.2-0.5,0.5-0.6,0.9c-0.1,0.3-0.2,0.7-0.2,1.1
					s0.1,0.8,0.2,1.1c0.1,0.3,0.3,0.6,0.6,0.9c0.3,0.2,0.6,0.4,0.9,0.6c0.3,0.1,0.7,0.2,1.2,0.2c0.2,0,0.4,0,0.7-0.1
					c0.2-0.1,0.5-0.1,0.7-0.2l0.1,0.3c-0.2,0.1-0.4,0.2-0.7,0.2C475.2,97.1,474.9,97.1,474.7,97.1z M474.6,95.8
					c-0.3,0-0.6-0.1-0.9-0.2c-0.3-0.2-0.5-0.4-0.6-0.6c-0.2-0.3-0.2-0.6-0.2-0.9s0.1-0.7,0.2-0.9c0.2-0.3,0.4-0.5,0.6-0.6
					c0.3-0.2,0.6-0.2,0.9-0.2c0.3,0,0.6,0.1,0.9,0.2c0.2,0.1,0.4,0.4,0.6,0.6c0.1,0.3,0.2,0.6,0.2,1s-0.1,0.7-0.2,1
					c-0.1,0.3-0.3,0.5-0.6,0.6C475.2,95.7,474.9,95.8,474.6,95.8z M474.7,95.4c0.3,0,0.5-0.1,0.7-0.2c0.2-0.1,0.4-0.3,0.5-0.5
					c0.1-0.2,0.2-0.5,0.2-0.7c0-0.3-0.1-0.5-0.2-0.7s-0.3-0.4-0.5-0.5s-0.4-0.2-0.7-0.2c-0.3,0-0.5,0.1-0.7,0.2
					c-0.2,0.1-0.4,0.3-0.5,0.5c-0.1,0.2-0.2,0.5-0.2,0.7s0.1,0.5,0.2,0.7c0.1,0.2,0.3,0.4,0.5,0.5C474.2,95.3,474.4,95.4,474.7,95.4
					z"/>
				<path class="st5" d="M480.5,95.6c-0.3,0-0.7-0.1-0.9-0.2c-0.3-0.2-0.5-0.4-0.7-0.6s-0.2-0.6-0.2-0.9c0-0.3,0.1-0.7,0.2-0.9
					c0.2-0.3,0.4-0.5,0.7-0.6c0.3-0.1,0.6-0.2,0.9-0.2c0.3,0,0.6,0.1,0.9,0.2c0.3,0.1,0.5,0.3,0.6,0.6c0.2,0.3,0.2,0.6,0.2,1
					c0,0.4-0.1,0.7-0.2,1c-0.2,0.3-0.4,0.5-0.6,0.6C481.1,95.5,480.8,95.6,480.5,95.6z M480.6,97.1c-0.3,0-0.7,0-1-0.1
					c-0.3-0.1-0.6-0.2-0.7-0.4l0.3-0.4c0.2,0.2,0.4,0.3,0.6,0.4s0.5,0.1,0.8,0.1c0.5,0,0.8-0.1,1-0.3c0.2-0.2,0.3-0.6,0.3-1v-0.9
					l0.1-0.6l0-0.6v-1.1h0.5v3.2c0,0.6-0.2,1.1-0.5,1.4C481.6,97,481.2,97.1,480.6,97.1z M480.5,95.2c0.3,0,0.5-0.1,0.7-0.2
					s0.4-0.3,0.5-0.5c0.1-0.2,0.2-0.4,0.2-0.7c0-0.3-0.1-0.5-0.2-0.7c-0.1-0.2-0.3-0.4-0.5-0.5s-0.5-0.2-0.7-0.2
					c-0.3,0-0.5,0.1-0.7,0.2c-0.2,0.1-0.4,0.3-0.5,0.5c-0.1,0.2-0.2,0.4-0.2,0.7c0,0.3,0.1,0.5,0.2,0.7c0.1,0.2,0.3,0.4,0.5,0.5
					C480,95.1,480.3,95.2,480.5,95.2z"/>
				<path class="st5" d="M488.4,92c0.3,0,0.6,0.1,0.8,0.2s0.4,0.3,0.5,0.5c0.1,0.2,0.2,0.5,0.2,0.9v2.1h-0.5v-2.1
					c0-0.4-0.1-0.7-0.3-0.9c-0.2-0.2-0.4-0.3-0.8-0.3c-0.3,0-0.5,0.1-0.7,0.2c-0.2,0.1-0.3,0.3-0.4,0.5c-0.1,0.2-0.2,0.4-0.2,0.7
					v1.9h-0.5v-2.1c0-0.4-0.1-0.7-0.3-0.9s-0.4-0.3-0.8-0.3c-0.2,0-0.5,0.1-0.7,0.2c-0.2,0.1-0.3,0.3-0.4,0.5
					c-0.1,0.2-0.2,0.4-0.2,0.7v1.9h-0.5v-3.7h0.5v1l-0.1-0.2c0.1-0.3,0.3-0.5,0.5-0.6c0.2-0.2,0.5-0.2,0.9-0.2
					c0.4,0,0.7,0.1,0.9,0.3c0.3,0.2,0.4,0.4,0.5,0.8l-0.2-0.1c0.1-0.3,0.3-0.5,0.6-0.7C487.7,92.1,488,92,488.4,92z"/>
				<path class="st5" d="M492.3,95.8c-0.3,0-0.5,0-0.7-0.1s-0.4-0.2-0.5-0.4s-0.2-0.3-0.2-0.6c0-0.2,0-0.4,0.1-0.5s0.2-0.3,0.4-0.4
					c0.2-0.1,0.5-0.1,0.8-0.1h1.3V94h-1.3c-0.4,0-0.6,0.1-0.7,0.2s-0.2,0.3-0.2,0.5c0,0.2,0.1,0.4,0.2,0.5s0.4,0.2,0.7,0.2
					c0.3,0,0.5-0.1,0.7-0.2c0.2-0.1,0.4-0.3,0.4-0.6l0.1,0.3c-0.1,0.2-0.3,0.4-0.5,0.6C492.9,95.7,492.6,95.8,492.3,95.8z
					 M493.5,95.7v-0.8l0-0.1v-1.4c0-0.3-0.1-0.6-0.3-0.7c-0.2-0.2-0.4-0.3-0.8-0.3c-0.2,0-0.5,0-0.7,0.1s-0.4,0.2-0.5,0.3l-0.2-0.4
					c0.2-0.2,0.4-0.3,0.7-0.4c0.3-0.1,0.5-0.1,0.8-0.1c0.5,0,0.8,0.1,1.1,0.4c0.3,0.2,0.4,0.6,0.4,1.1v2.3H493.5z"/>
				<path class="st5" d="M495.6,91.3c-0.1,0-0.2,0-0.3-0.1c-0.1-0.1-0.1-0.2-0.1-0.3c0-0.1,0-0.2,0.1-0.2c0.1-0.1,0.2-0.1,0.3-0.1
					s0.2,0,0.3,0.1c0.1,0.1,0.1,0.1,0.1,0.2c0,0.1,0,0.2-0.1,0.3C495.8,91.2,495.7,91.3,495.6,91.3z M495.4,95.7v-3.7h0.5v3.7H495.4
					z"/>
				<path class="st5" d="M497.3,95.7v-5.2h0.5v5.2H497.3z"/>
				<path class="st5" d="M499.2,95.8c-0.1,0-0.2,0-0.3-0.1s-0.1-0.2-0.1-0.3c0-0.1,0-0.2,0.1-0.3c0.1-0.1,0.2-0.1,0.3-0.1
					s0.2,0,0.3,0.1c0.1,0.1,0.1,0.2,0.1,0.3c0,0.1,0,0.2-0.1,0.3C499.4,95.7,499.3,95.8,499.2,95.8z"/>
				<path class="st5" d="M502.1,95.8c-0.4,0-0.7-0.1-1-0.2s-0.5-0.4-0.7-0.7c-0.2-0.3-0.2-0.6-0.2-1c0-0.4,0.1-0.7,0.2-1
					c0.2-0.3,0.4-0.5,0.7-0.7c0.3-0.2,0.6-0.2,1-0.2c0.3,0,0.6,0.1,0.8,0.2s0.5,0.3,0.6,0.5l-0.4,0.3c-0.1-0.2-0.3-0.3-0.5-0.4
					c-0.2-0.1-0.4-0.1-0.6-0.1c-0.3,0-0.5,0.1-0.7,0.2s-0.4,0.3-0.5,0.5c-0.1,0.2-0.2,0.5-0.2,0.8c0,0.3,0.1,0.5,0.2,0.8
					s0.3,0.4,0.5,0.5s0.4,0.2,0.7,0.2c0.2,0,0.4,0,0.6-0.1s0.3-0.2,0.5-0.4l0.4,0.3c-0.1,0.2-0.3,0.4-0.6,0.5
					C502.7,95.7,502.5,95.8,502.1,95.8z"/>
				<path class="st5" d="M506.1,95.8c-0.4,0-0.7-0.1-1-0.2c-0.3-0.2-0.5-0.4-0.7-0.7c-0.2-0.3-0.2-0.6-0.2-1c0-0.4,0.1-0.7,0.2-1
					c0.2-0.3,0.4-0.5,0.7-0.7c0.3-0.2,0.6-0.2,1-0.2c0.4,0,0.7,0.1,1,0.2s0.5,0.4,0.7,0.7s0.2,0.6,0.2,1c0,0.4-0.1,0.7-0.2,1
					c-0.2,0.3-0.4,0.5-0.7,0.7C506.7,95.7,506.4,95.8,506.1,95.8z M506.1,95.3c0.3,0,0.5-0.1,0.7-0.2c0.2-0.1,0.4-0.3,0.5-0.5
					s0.2-0.5,0.2-0.8c0-0.3-0.1-0.5-0.2-0.8c-0.1-0.2-0.3-0.4-0.5-0.5c-0.2-0.1-0.4-0.2-0.7-0.2c-0.3,0-0.5,0.1-0.7,0.2
					s-0.4,0.3-0.5,0.5c-0.1,0.2-0.2,0.5-0.2,0.8c0,0.3,0.1,0.5,0.2,0.8s0.3,0.4,0.5,0.5S505.8,95.3,506.1,95.3z"/>
				<path class="st5" d="M513.5,92c0.3,0,0.6,0.1,0.8,0.2s0.4,0.3,0.5,0.5c0.1,0.2,0.2,0.5,0.2,0.9v2.1h-0.5v-2.1
					c0-0.4-0.1-0.7-0.3-0.9c-0.2-0.2-0.4-0.3-0.8-0.3c-0.3,0-0.5,0.1-0.7,0.2c-0.2,0.1-0.3,0.3-0.4,0.5c-0.1,0.2-0.2,0.4-0.2,0.7
					v1.9h-0.5v-2.1c0-0.4-0.1-0.7-0.3-0.9s-0.4-0.3-0.8-0.3c-0.2,0-0.5,0.1-0.7,0.2c-0.2,0.1-0.3,0.3-0.4,0.5
					c-0.1,0.2-0.2,0.4-0.2,0.7v1.9h-0.5v-3.7h0.5v1l-0.1-0.2c0.1-0.3,0.3-0.5,0.5-0.6c0.2-0.2,0.5-0.2,0.9-0.2
					c0.4,0,0.7,0.1,0.9,0.3c0.3,0.2,0.4,0.4,0.5,0.8L512,93c0.1-0.3,0.3-0.5,0.6-0.7C512.8,92.1,513.2,92,513.5,92z"/>
			</g>
		</g>
	</g>
	<g>
		<g>
			<circle class="st5" cx="354.5" cy="124.5" r="4"/>
			<g>
				<path class="st0" d="M354.5,121.8c-1.1,0-2,0.9-2,2c0,1,1.5,2.7,1.9,3.2c0.1,0.1,0.2,0.1,0.2,0c0.4-0.5,1.9-2.2,1.9-3.2
					C356.6,122.7,355.6,121.8,354.5,121.8z M354.5,124.8c-0.6,0-1-0.5-1-1c0-0.6,0.5-1,1-1c0.6,0,1,0.5,1,1
					C355.5,124.3,355.1,124.8,354.5,124.8z"/>
			</g>
		</g>
		<g>
			<g>
				<path class="st5" d="M362.2,126.1h2.5v0.4h-3v-4.2h2.9v0.4h-2.4V126.1z M362.1,124.2h2.2v0.4h-2.2V124.2z"/>
				<path class="st5" d="M369.6,123.3c0.3,0,0.5,0,0.7,0.1c0.2,0.1,0.3,0.2,0.4,0.4c0.1,0.2,0.2,0.5,0.2,0.8v1.8h-0.4v-1.8
					c0-0.3-0.1-0.6-0.2-0.8s-0.4-0.3-0.7-0.3c-0.2,0-0.4,0-0.6,0.1s-0.3,0.2-0.4,0.4c-0.1,0.2-0.1,0.4-0.1,0.6v1.7H368v-1.8
					c0-0.3-0.1-0.6-0.2-0.8s-0.4-0.3-0.7-0.3c-0.2,0-0.4,0-0.6,0.1c-0.2,0.1-0.3,0.2-0.4,0.4c-0.1,0.2-0.1,0.4-0.1,0.6v1.7h-0.4
					v-3.2h0.4v0.9l-0.1-0.2c0.1-0.2,0.3-0.4,0.5-0.5c0.2-0.1,0.5-0.2,0.8-0.2c0.3,0,0.6,0.1,0.8,0.2c0.2,0.2,0.4,0.4,0.4,0.7
					l-0.2-0.1c0.1-0.3,0.3-0.5,0.5-0.6C369,123.4,369.3,123.3,369.6,123.3z"/>
				<path class="st5" d="M372,127.7v-4.3h0.4v0.9l0,0.6l0.1,0.6v2.1H372z M373.6,126.5c-0.3,0-0.5-0.1-0.7-0.2
					c-0.2-0.1-0.4-0.3-0.5-0.5s-0.2-0.5-0.2-0.9s0.1-0.6,0.2-0.9c0.1-0.2,0.3-0.4,0.5-0.5c0.2-0.1,0.5-0.2,0.7-0.2
					c0.3,0,0.6,0.1,0.8,0.2c0.2,0.1,0.4,0.3,0.6,0.6s0.2,0.5,0.2,0.8c0,0.3-0.1,0.6-0.2,0.8c-0.1,0.2-0.3,0.4-0.6,0.6
					C374.2,126.5,373.9,126.5,373.6,126.5z M373.6,126.2c0.2,0,0.4-0.1,0.6-0.2s0.3-0.2,0.4-0.4c0.1-0.2,0.2-0.4,0.2-0.6
					s-0.1-0.5-0.2-0.6c-0.1-0.2-0.2-0.3-0.4-0.4c-0.2-0.1-0.4-0.2-0.6-0.2c-0.2,0-0.4,0.1-0.6,0.2c-0.2,0.1-0.3,0.2-0.4,0.4
					c-0.1,0.2-0.2,0.4-0.2,0.6s0.1,0.5,0.2,0.6c0.1,0.2,0.2,0.3,0.4,0.4S373.4,126.2,373.6,126.2z"/>
				<path class="st5" d="M376.1,126.5v-3.2h0.4v0.9l0-0.2c0.1-0.2,0.2-0.4,0.4-0.5s0.5-0.2,0.8-0.2v0.4c0,0,0,0,0,0s0,0,0,0
					c-0.3,0-0.6,0.1-0.8,0.3c-0.2,0.2-0.3,0.5-0.3,0.9v1.6H376.1z"/>
				<path class="st5" d="M379.8,126.5c-0.3,0-0.6-0.1-0.9-0.2c-0.2-0.1-0.4-0.3-0.6-0.6c-0.1-0.2-0.2-0.5-0.2-0.8
					c0-0.3,0.1-0.6,0.2-0.8c0.1-0.2,0.3-0.4,0.6-0.6c0.2-0.1,0.5-0.2,0.8-0.2c0.3,0,0.6,0.1,0.8,0.2c0.2,0.1,0.4,0.3,0.5,0.6
					c0.1,0.2,0.2,0.5,0.2,0.8c0,0,0,0,0,0.1c0,0,0,0,0,0.1h-2.7v-0.3h2.5l-0.2,0.1c0-0.2,0-0.4-0.1-0.6s-0.2-0.3-0.4-0.4
					s-0.4-0.2-0.6-0.2c-0.2,0-0.4,0.1-0.6,0.2s-0.3,0.2-0.4,0.4s-0.1,0.4-0.1,0.6v0.1c0,0.2,0.1,0.5,0.2,0.6
					c0.1,0.2,0.3,0.3,0.4,0.4s0.4,0.2,0.7,0.2c0.2,0,0.4,0,0.5-0.1c0.2-0.1,0.3-0.2,0.4-0.3l0.2,0.3c-0.1,0.2-0.3,0.3-0.5,0.4
					S380.1,126.5,379.8,126.5z"/>
				<path class="st5" d="M383,126.5c-0.3,0-0.5,0-0.7-0.1c-0.2-0.1-0.4-0.2-0.5-0.3l0.2-0.3c0.1,0.1,0.3,0.2,0.5,0.2
					c0.2,0.1,0.4,0.1,0.6,0.1c0.3,0,0.5,0,0.6-0.1c0.1-0.1,0.2-0.2,0.2-0.4c0-0.1,0-0.2-0.1-0.3c-0.1-0.1-0.2-0.1-0.3-0.2
					c-0.1,0-0.3-0.1-0.4-0.1c-0.1,0-0.3-0.1-0.4-0.1c-0.1,0-0.3-0.1-0.4-0.1c-0.1-0.1-0.2-0.1-0.3-0.3c-0.1-0.1-0.1-0.3-0.1-0.4
					c0-0.2,0-0.3,0.1-0.5s0.2-0.2,0.4-0.3c0.2-0.1,0.4-0.1,0.7-0.1c0.2,0,0.4,0,0.6,0.1c0.2,0.1,0.4,0.1,0.5,0.2L384,124
					c-0.1-0.1-0.3-0.2-0.5-0.2s-0.3-0.1-0.5-0.1c-0.3,0-0.5,0-0.6,0.1c-0.1,0.1-0.2,0.2-0.2,0.4c0,0.1,0,0.2,0.1,0.3
					c0.1,0.1,0.2,0.1,0.3,0.2s0.3,0.1,0.4,0.1c0.1,0,0.3,0.1,0.4,0.1c0.1,0,0.3,0.1,0.4,0.1c0.1,0.1,0.2,0.1,0.3,0.2
					c0.1,0.1,0.1,0.2,0.1,0.4c0,0.2-0.1,0.3-0.2,0.5c-0.1,0.1-0.2,0.2-0.4,0.3C383.5,126.5,383.2,126.5,383,126.5z"/>
				<path class="st5" d="M385.9,126.5c-0.2,0-0.4,0-0.6-0.1s-0.3-0.2-0.4-0.3s-0.1-0.3-0.1-0.5c0-0.2,0-0.3,0.1-0.4s0.2-0.2,0.4-0.3
					s0.4-0.1,0.7-0.1h1.1v0.3H386c-0.3,0-0.5,0.1-0.6,0.2c-0.1,0.1-0.2,0.2-0.2,0.4c0,0.2,0.1,0.3,0.2,0.4c0.1,0.1,0.3,0.2,0.6,0.2
					c0.2,0,0.4-0.1,0.6-0.2c0.2-0.1,0.3-0.3,0.4-0.5l0.1,0.3c-0.1,0.2-0.2,0.4-0.4,0.5C386.5,126.5,386.2,126.5,385.9,126.5z
					 M387,126.5v-0.7l0-0.1v-1.2c0-0.3-0.1-0.5-0.2-0.6c-0.2-0.1-0.4-0.2-0.7-0.2c-0.2,0-0.4,0-0.6,0.1c-0.2,0.1-0.3,0.2-0.5,0.3
					l-0.2-0.3c0.2-0.1,0.4-0.2,0.6-0.3c0.2-0.1,0.5-0.1,0.7-0.1c0.4,0,0.7,0.1,0.9,0.3c0.2,0.2,0.3,0.5,0.3,0.9v2H387z"/>
				<path class="st5" d="M388.6,126.5v-3.2h0.4v0.9l0-0.2c0.1-0.2,0.2-0.4,0.4-0.5s0.5-0.2,0.8-0.2v0.4c0,0,0,0,0,0s0,0,0,0
					c-0.3,0-0.6,0.1-0.8,0.3c-0.2,0.2-0.3,0.5-0.3,0.9v1.6H388.6z"/>
				<path class="st5" d="M391.2,122.7c-0.1,0-0.2,0-0.2-0.1c-0.1-0.1-0.1-0.1-0.1-0.2s0-0.2,0.1-0.2c0.1-0.1,0.1-0.1,0.2-0.1
					s0.2,0,0.2,0.1c0.1,0.1,0.1,0.1,0.1,0.2c0,0.1,0,0.2-0.1,0.2C391.4,122.6,391.3,122.7,391.2,122.7z M391,126.5v-3.2h0.4v3.2H391
					z"/>
				<path class="st5" d="M393.5,126.5c-0.2,0-0.4,0-0.6-0.1s-0.3-0.2-0.4-0.3s-0.1-0.3-0.1-0.5c0-0.2,0-0.3,0.1-0.4s0.2-0.2,0.4-0.3
					s0.4-0.1,0.7-0.1h1.1v0.3h-1.1c-0.3,0-0.5,0.1-0.6,0.2c-0.1,0.1-0.2,0.2-0.2,0.4c0,0.2,0.1,0.3,0.2,0.4c0.1,0.1,0.3,0.2,0.6,0.2
					c0.2,0,0.4-0.1,0.6-0.2c0.2-0.1,0.3-0.3,0.4-0.5l0.1,0.3c-0.1,0.2-0.2,0.4-0.4,0.5C394,126.5,393.8,126.5,393.5,126.5z
					 M394.6,126.5v-0.7l0-0.1v-1.2c0-0.3-0.1-0.5-0.2-0.6c-0.2-0.1-0.4-0.2-0.7-0.2c-0.2,0-0.4,0-0.6,0.1c-0.2,0.1-0.3,0.2-0.5,0.3
					l-0.2-0.3c0.2-0.1,0.4-0.2,0.6-0.3c0.2-0.1,0.5-0.1,0.7-0.1c0.4,0,0.7,0.1,0.9,0.3c0.2,0.2,0.3,0.5,0.3,0.9v2H394.6z"/>
				<path class="st5" d="M396.1,126.5v-4.5h0.4v4.5H396.1z"/>
				<path class="st5" d="M399.4,126.5v-4.2h1.6c0.4,0,0.7,0.1,0.9,0.2c0.3,0.1,0.5,0.3,0.6,0.5c0.1,0.2,0.2,0.5,0.2,0.8
					c0,0.3-0.1,0.6-0.2,0.8c-0.1,0.2-0.3,0.4-0.6,0.5s-0.6,0.2-0.9,0.2h-1.3l0.2-0.2v1.5H399.4z M399.9,125l-0.2-0.2h1.3
					c0.4,0,0.7-0.1,1-0.3c0.2-0.2,0.3-0.4,0.3-0.8c0-0.3-0.1-0.6-0.3-0.8s-0.5-0.3-1-0.3h-1.3l0.2-0.2V125z M402.3,126.5l-1.1-1.5
					h0.5l1.1,1.5H402.3z"/>
				<path class="st5" d="M405,126.5c-0.3,0-0.6-0.1-0.8-0.2c-0.2-0.1-0.4-0.3-0.6-0.6c-0.1-0.2-0.2-0.5-0.2-0.8
					c0-0.3,0.1-0.6,0.2-0.8c0.1-0.2,0.3-0.4,0.6-0.6c0.2-0.1,0.5-0.2,0.8-0.2c0.3,0,0.6,0.1,0.8,0.2c0.2,0.1,0.4,0.3,0.6,0.6
					c0.1,0.2,0.2,0.5,0.2,0.8c0,0.3-0.1,0.6-0.2,0.8c-0.1,0.2-0.3,0.4-0.6,0.6C405.5,126.5,405.3,126.5,405,126.5z M405,126.2
					c0.2,0,0.4-0.1,0.6-0.2c0.2-0.1,0.3-0.2,0.4-0.4c0.1-0.2,0.2-0.4,0.2-0.6c0-0.2-0.1-0.5-0.2-0.6c-0.1-0.2-0.2-0.3-0.4-0.4
					c-0.2-0.1-0.4-0.2-0.6-0.2c-0.2,0-0.4,0.1-0.6,0.2c-0.2,0.1-0.3,0.2-0.4,0.4c-0.1,0.2-0.2,0.4-0.2,0.6c0,0.2,0.1,0.5,0.2,0.6
					c0.1,0.2,0.2,0.3,0.4,0.4S404.7,126.2,405,126.2z"/>
				<path class="st5" d="M408.7,126.5c-0.3,0-0.6-0.1-0.8-0.2c-0.2-0.1-0.4-0.3-0.6-0.6c-0.1-0.2-0.2-0.5-0.2-0.8
					c0-0.3,0.1-0.6,0.2-0.8c0.1-0.2,0.3-0.4,0.6-0.6c0.2-0.1,0.5-0.2,0.8-0.2c0.3,0,0.5,0.1,0.7,0.2c0.2,0.1,0.4,0.3,0.5,0.5
					l-0.3,0.2c-0.1-0.2-0.2-0.3-0.4-0.4c-0.2-0.1-0.3-0.1-0.5-0.1c-0.2,0-0.4,0.1-0.6,0.2c-0.2,0.1-0.3,0.2-0.4,0.4
					c-0.1,0.2-0.2,0.4-0.2,0.6s0.1,0.5,0.2,0.6c0.1,0.2,0.2,0.3,0.4,0.4s0.4,0.2,0.6,0.2c0.2,0,0.4,0,0.5-0.1s0.3-0.2,0.4-0.3
					l0.3,0.2c-0.1,0.2-0.3,0.4-0.5,0.5C409.2,126.5,409,126.5,408.7,126.5z"/>
				<path class="st5" d="M412.4,123.3c0.3,0,0.5,0,0.7,0.1c0.2,0.1,0.3,0.2,0.5,0.4s0.2,0.5,0.2,0.8v1.8h-0.4v-1.8
					c0-0.3-0.1-0.6-0.2-0.8s-0.4-0.3-0.7-0.3c-0.2,0-0.4,0-0.6,0.1s-0.3,0.2-0.4,0.4c-0.1,0.2-0.1,0.4-0.1,0.6v1.7h-0.4v-4.5h0.4
					v2.2l-0.1-0.2c0.1-0.2,0.3-0.4,0.5-0.5C411.8,123.4,412.1,123.3,412.4,123.3z"/>
				<path class="st5" d="M415.8,126.5c-0.2,0-0.4,0-0.6-0.1s-0.3-0.2-0.4-0.3s-0.1-0.3-0.1-0.5c0-0.2,0-0.3,0.1-0.4s0.2-0.2,0.4-0.3
					s0.4-0.1,0.7-0.1h1.1v0.3h-1.1c-0.3,0-0.5,0.1-0.6,0.2c-0.1,0.1-0.2,0.2-0.2,0.4c0,0.2,0.1,0.3,0.2,0.4c0.1,0.1,0.3,0.2,0.6,0.2
					c0.2,0,0.4-0.1,0.6-0.2c0.2-0.1,0.3-0.3,0.4-0.5l0.1,0.3c-0.1,0.2-0.2,0.4-0.4,0.5C416.3,126.5,416.1,126.5,415.8,126.5z
					 M416.8,126.5v-0.7l0-0.1v-1.2c0-0.3-0.1-0.5-0.2-0.6c-0.2-0.1-0.4-0.2-0.7-0.2c-0.2,0-0.4,0-0.6,0.1c-0.2,0.1-0.3,0.2-0.5,0.3
					l-0.2-0.3c0.2-0.1,0.4-0.2,0.6-0.3c0.2-0.1,0.5-0.1,0.7-0.1c0.4,0,0.7,0.1,0.9,0.3c0.2,0.2,0.3,0.5,0.3,0.9v2H416.8z"/>
				<path class="st5" d="M419.7,125.1v-0.4h1.6v0.4H419.7z"/>
				<path class="st5" d="M423.3,126.5l1.9-4.2h0.4l1.9,4.2h-0.5l-1.8-3.9h0.2l-1.8,3.9H423.3z M424,125.4l0.1-0.4h2.4l0.1,0.4H424z"
					/>
				<path class="st5" d="M429,126.5l-1.4-3.2h0.4l1.3,2.9h-0.2l1.3-2.9h0.4l-1.4,3.2H429z"/>
				<path class="st5" d="M431.4,126.5c-0.1,0-0.2,0-0.2-0.1c-0.1-0.1-0.1-0.1-0.1-0.2c0-0.1,0-0.2,0.1-0.2c0.1-0.1,0.1-0.1,0.2-0.1
					s0.2,0,0.2,0.1c0.1,0.1,0.1,0.1,0.1,0.2c0,0.1,0,0.2-0.1,0.2C431.6,126.5,431.5,126.5,431.4,126.5z"/>
				<path class="st5" d="M433.7,126.5l1.9-4.2h0.4l1.9,4.2h-0.5l-1.8-3.9h0.2l-1.8,3.9H433.7z M434.4,125.4l0.1-0.4h2.4l0.1,0.4
					H434.4z"/>
				<path class="st5" d="M438.5,127.7v-4.3h0.4v0.9l0,0.6l0.1,0.6v2.1H438.5z M440.2,126.5c-0.3,0-0.5-0.1-0.7-0.2
					c-0.2-0.1-0.4-0.3-0.5-0.5s-0.2-0.5-0.2-0.9s0.1-0.6,0.2-0.9c0.1-0.2,0.3-0.4,0.5-0.5c0.2-0.1,0.5-0.2,0.7-0.2
					c0.3,0,0.6,0.1,0.8,0.2c0.2,0.1,0.4,0.3,0.6,0.6s0.2,0.5,0.2,0.8c0,0.3-0.1,0.6-0.2,0.8c-0.1,0.2-0.3,0.4-0.6,0.6
					C440.7,126.5,440.5,126.5,440.2,126.5z M440.1,126.2c0.2,0,0.4-0.1,0.6-0.2s0.3-0.2,0.4-0.4c0.1-0.2,0.2-0.4,0.2-0.6
					s-0.1-0.5-0.2-0.6c-0.1-0.2-0.2-0.3-0.4-0.4c-0.2-0.1-0.4-0.2-0.6-0.2c-0.2,0-0.4,0.1-0.6,0.2c-0.2,0.1-0.3,0.2-0.4,0.4
					c-0.1,0.2-0.2,0.4-0.2,0.6s0.1,0.5,0.2,0.6c0.1,0.2,0.2,0.3,0.4,0.4S439.9,126.2,440.1,126.2z"/>
				<path class="st5" d="M443.9,126.5c-0.3,0-0.6-0.1-0.8-0.2c-0.2-0.1-0.4-0.3-0.6-0.6c-0.1-0.2-0.2-0.5-0.2-0.8
					c0-0.3,0.1-0.6,0.2-0.8c0.1-0.2,0.3-0.4,0.6-0.6c0.2-0.1,0.5-0.2,0.8-0.2c0.3,0,0.6,0.1,0.8,0.2c0.2,0.1,0.4,0.3,0.6,0.6
					c0.1,0.2,0.2,0.5,0.2,0.8c0,0.3-0.1,0.6-0.2,0.8c-0.1,0.2-0.3,0.4-0.6,0.6C444.5,126.5,444.2,126.5,443.9,126.5z M443.9,126.2
					c0.2,0,0.4-0.1,0.6-0.2c0.2-0.1,0.3-0.2,0.4-0.4c0.1-0.2,0.2-0.4,0.2-0.6c0-0.2-0.1-0.5-0.2-0.6c-0.1-0.2-0.2-0.3-0.4-0.4
					c-0.2-0.1-0.4-0.2-0.6-0.2c-0.2,0-0.4,0.1-0.6,0.2c-0.2,0.1-0.3,0.2-0.4,0.4c-0.1,0.2-0.2,0.4-0.2,0.6c0,0.2,0.1,0.5,0.2,0.6
					c0.1,0.2,0.2,0.3,0.4,0.4S443.7,126.2,443.9,126.2z"/>
				<path class="st5" d="M446.4,126.5v-4.5h0.4v4.5H446.4z"/>
				<path class="st5" d="M449.3,126.5c-0.3,0-0.6-0.1-0.8-0.2c-0.2-0.1-0.4-0.3-0.6-0.6c-0.1-0.2-0.2-0.5-0.2-0.8
					c0-0.3,0.1-0.6,0.2-0.8c0.1-0.2,0.3-0.4,0.6-0.6c0.2-0.1,0.5-0.2,0.8-0.2c0.3,0,0.6,0.1,0.8,0.2c0.2,0.1,0.4,0.3,0.6,0.6
					c0.1,0.2,0.2,0.5,0.2,0.8c0,0.3-0.1,0.6-0.2,0.8c-0.1,0.2-0.3,0.4-0.6,0.6C449.8,126.5,449.6,126.5,449.3,126.5z M449.3,126.2
					c0.2,0,0.4-0.1,0.6-0.2c0.2-0.1,0.3-0.2,0.4-0.4c0.1-0.2,0.2-0.4,0.2-0.6c0-0.2-0.1-0.5-0.2-0.6c-0.1-0.2-0.2-0.3-0.4-0.4
					c-0.2-0.1-0.4-0.2-0.6-0.2c-0.2,0-0.4,0.1-0.6,0.2c-0.2,0.1-0.3,0.2-0.4,0.4c-0.1,0.2-0.2,0.4-0.2,0.6c0,0.2,0.1,0.5,0.2,0.6
					c0.1,0.2,0.2,0.3,0.4,0.4S449,126.2,449.3,126.2z M448.3,122.9l0.8-0.7h0.4l0.8,0.7h-0.4l-0.8-0.6h0.3l-0.8,0.6H448.3z"/>
				<path class="st5" d="M453.4,123.3c0.3,0,0.5,0,0.7,0.1c0.2,0.1,0.3,0.2,0.5,0.4s0.2,0.5,0.2,0.8v1.8h-0.4v-1.8
					c0-0.3-0.1-0.6-0.2-0.8s-0.4-0.3-0.7-0.3c-0.2,0-0.4,0-0.6,0.1s-0.3,0.2-0.4,0.4c-0.1,0.2-0.1,0.4-0.1,0.6v1.7h-0.4v-3.2h0.4
					v0.9l-0.1-0.2c0.1-0.2,0.3-0.4,0.5-0.5C452.8,123.4,453,123.3,453.4,123.3z"/>
				<path class="st5" d="M456,122.7c-0.1,0-0.2,0-0.2-0.1c-0.1-0.1-0.1-0.1-0.1-0.2s0-0.2,0.1-0.2c0.1-0.1,0.1-0.1,0.2-0.1
					s0.2,0,0.2,0.1c0.1,0.1,0.1,0.1,0.1,0.2c0,0.1,0,0.2-0.1,0.2C456.2,122.6,456.1,122.7,456,122.7z M455.8,126.5v-3.2h0.4v3.2
					H455.8z"/>
				<path class="st5" d="M458.7,126.5c-0.3,0-0.6-0.1-0.8-0.2c-0.2-0.1-0.4-0.3-0.6-0.6c-0.1-0.2-0.2-0.5-0.2-0.8
					c0-0.3,0.1-0.6,0.2-0.8c0.1-0.2,0.3-0.4,0.6-0.6c0.2-0.1,0.5-0.2,0.8-0.2c0.3,0,0.6,0.1,0.8,0.2c0.2,0.1,0.4,0.3,0.6,0.6
					c0.1,0.2,0.2,0.5,0.2,0.8c0,0.3-0.1,0.6-0.2,0.8c-0.1,0.2-0.3,0.4-0.6,0.6C459.3,126.5,459,126.5,458.7,126.5z M458.7,126.2
					c0.2,0,0.4-0.1,0.6-0.2c0.2-0.1,0.3-0.2,0.4-0.4c0.1-0.2,0.2-0.4,0.2-0.6c0-0.2-0.1-0.5-0.2-0.6c-0.1-0.2-0.2-0.3-0.4-0.4
					c-0.2-0.1-0.4-0.2-0.6-0.2c-0.2,0-0.4,0.1-0.6,0.2c-0.2,0.1-0.3,0.2-0.4,0.4c-0.1,0.2-0.2,0.4-0.2,0.6c0,0.2,0.1,0.5,0.2,0.6
					c0.1,0.2,0.2,0.3,0.4,0.4S458.5,126.2,458.7,126.2z"/>
				<path class="st5" d="M464,126.5c-0.3,0-0.6-0.1-0.9-0.2c-0.3-0.1-0.5-0.2-0.7-0.4l0.2-0.3c0.1,0.1,0.3,0.3,0.6,0.4
					c0.2,0.1,0.5,0.1,0.8,0.1c0.3,0,0.5,0,0.6-0.1c0.2-0.1,0.3-0.2,0.4-0.3c0.1-0.1,0.1-0.2,0.1-0.4c0-0.2,0-0.3-0.1-0.4
					c-0.1-0.1-0.2-0.2-0.4-0.2s-0.3-0.1-0.5-0.2c-0.2,0-0.4-0.1-0.6-0.1c-0.2,0-0.4-0.1-0.5-0.2c-0.2-0.1-0.3-0.2-0.4-0.3
					c-0.1-0.1-0.1-0.3-0.1-0.5c0-0.2,0.1-0.4,0.2-0.6s0.3-0.3,0.5-0.4c0.2-0.1,0.5-0.2,0.9-0.2c0.2,0,0.5,0,0.7,0.1
					c0.2,0.1,0.4,0.2,0.6,0.3l-0.2,0.4c-0.2-0.1-0.4-0.2-0.6-0.3c-0.2-0.1-0.4-0.1-0.6-0.1c-0.3,0-0.5,0-0.6,0.1s-0.3,0.2-0.4,0.3
					c-0.1,0.1-0.1,0.2-0.1,0.4c0,0.2,0,0.3,0.1,0.4c0.1,0.1,0.2,0.2,0.4,0.2s0.3,0.1,0.5,0.1c0.2,0,0.4,0.1,0.5,0.1
					c0.2,0.1,0.4,0.1,0.5,0.2c0.2,0.1,0.3,0.2,0.4,0.3c0.1,0.1,0.1,0.3,0.1,0.5c0,0.2-0.1,0.4-0.2,0.6c-0.1,0.2-0.3,0.3-0.5,0.4
					C464.7,126.5,464.4,126.5,464,126.5z"/>
				<path class="st5" d="M467.3,126.5c-0.2,0-0.4,0-0.6-0.1s-0.3-0.2-0.4-0.3s-0.1-0.3-0.1-0.5c0-0.2,0-0.3,0.1-0.4s0.2-0.2,0.4-0.3
					s0.4-0.1,0.7-0.1h1.1v0.3h-1.1c-0.3,0-0.5,0.1-0.6,0.2c-0.1,0.1-0.2,0.2-0.2,0.4c0,0.2,0.1,0.3,0.2,0.4c0.1,0.1,0.3,0.2,0.6,0.2
					c0.2,0,0.4-0.1,0.6-0.2c0.2-0.1,0.3-0.3,0.4-0.5l0.1,0.3c-0.1,0.2-0.2,0.4-0.4,0.5C467.9,126.5,467.6,126.5,467.3,126.5z
					 M468.4,126.5v-0.7l0-0.1v-1.2c0-0.3-0.1-0.5-0.2-0.6c-0.2-0.1-0.4-0.2-0.7-0.2c-0.2,0-0.4,0-0.6,0.1c-0.2,0.1-0.3,0.2-0.5,0.3
					l-0.2-0.3c0.2-0.1,0.4-0.2,0.6-0.3c0.2-0.1,0.5-0.1,0.7-0.1c0.4,0,0.7,0.1,0.9,0.3c0.2,0.2,0.3,0.5,0.3,0.9v2H468.4z"/>
				<path class="st5" d="M470,126.5v-4.5h0.4v4.5H470z"/>
				<path class="st5" d="M472.9,126.5c-0.3,0-0.6-0.1-0.9-0.2c-0.2-0.1-0.4-0.3-0.6-0.6c-0.1-0.2-0.2-0.5-0.2-0.8
					c0-0.3,0.1-0.6,0.2-0.8c0.1-0.2,0.3-0.4,0.6-0.6c0.2-0.1,0.5-0.2,0.8-0.2c0.3,0,0.6,0.1,0.8,0.2c0.2,0.1,0.4,0.3,0.5,0.6
					c0.1,0.2,0.2,0.5,0.2,0.8c0,0,0,0,0,0.1c0,0,0,0,0,0.1h-2.7v-0.3h2.5l-0.2,0.1c0-0.2,0-0.4-0.1-0.6s-0.2-0.3-0.4-0.4
					s-0.4-0.2-0.6-0.2c-0.2,0-0.4,0.1-0.6,0.2s-0.3,0.2-0.4,0.4s-0.1,0.4-0.1,0.6v0.1c0,0.2,0.1,0.5,0.2,0.6
					c0.1,0.2,0.3,0.3,0.4,0.4s0.4,0.2,0.7,0.2c0.2,0,0.4,0,0.5-0.1c0.2-0.1,0.3-0.2,0.4-0.3l0.2,0.3c-0.1,0.2-0.3,0.3-0.5,0.4
					S473.2,126.5,472.9,126.5z"/>
				<path class="st5" d="M476.1,126.5c-0.3,0-0.5,0-0.7-0.1c-0.2-0.1-0.4-0.2-0.5-0.3l0.2-0.3c0.1,0.1,0.3,0.2,0.5,0.2
					c0.2,0.1,0.4,0.1,0.6,0.1c0.3,0,0.5,0,0.6-0.1c0.1-0.1,0.2-0.2,0.2-0.4c0-0.1,0-0.2-0.1-0.3c-0.1-0.1-0.2-0.1-0.3-0.2
					c-0.1,0-0.3-0.1-0.4-0.1c-0.1,0-0.3-0.1-0.4-0.1c-0.1,0-0.3-0.1-0.4-0.1c-0.1-0.1-0.2-0.1-0.3-0.3c-0.1-0.1-0.1-0.3-0.1-0.4
					c0-0.2,0-0.3,0.1-0.5s0.2-0.2,0.4-0.3c0.2-0.1,0.4-0.1,0.7-0.1c0.2,0,0.4,0,0.6,0.1c0.2,0.1,0.4,0.1,0.5,0.2l-0.2,0.3
					c-0.1-0.1-0.3-0.2-0.5-0.2s-0.3-0.1-0.5-0.1c-0.3,0-0.5,0-0.6,0.1c-0.1,0.1-0.2,0.2-0.2,0.4c0,0.1,0,0.2,0.1,0.3
					c0.1,0.1,0.2,0.1,0.3,0.2s0.3,0.1,0.4,0.1c0.1,0,0.3,0.1,0.4,0.1c0.1,0,0.3,0.1,0.4,0.1c0.1,0.1,0.2,0.1,0.3,0.2
					c0.1,0.1,0.1,0.2,0.1,0.4c0,0.2-0.1,0.3-0.2,0.5c-0.1,0.1-0.2,0.2-0.4,0.3C476.6,126.5,476.3,126.5,476.1,126.5z"/>
				<path class="st5" d="M477.9,127.4l0.3-1.1l0,0.3c-0.1,0-0.2,0-0.2-0.1c-0.1-0.1-0.1-0.1-0.1-0.2c0-0.1,0-0.2,0.1-0.2
					c0.1-0.1,0.1-0.1,0.2-0.1c0.1,0,0.2,0,0.2,0.1c0.1,0.1,0.1,0.1,0.1,0.2c0,0,0,0.1,0,0.1s0,0.1,0,0.1s0,0.1,0,0.1l-0.3,0.8H477.9
					z"/>
				<path class="st5" d="M482.2,126.5c-0.3,0-0.6-0.1-0.9-0.2c-0.3-0.1-0.5-0.2-0.7-0.4l0.2-0.3c0.1,0.1,0.3,0.3,0.6,0.4
					c0.2,0.1,0.5,0.1,0.8,0.1c0.3,0,0.5,0,0.6-0.1c0.2-0.1,0.3-0.2,0.4-0.3c0.1-0.1,0.1-0.2,0.1-0.4c0-0.2,0-0.3-0.1-0.4
					c-0.1-0.1-0.2-0.2-0.4-0.2s-0.3-0.1-0.5-0.2c-0.2,0-0.4-0.1-0.6-0.1c-0.2,0-0.4-0.1-0.5-0.2c-0.2-0.1-0.3-0.2-0.4-0.3
					c-0.1-0.1-0.1-0.3-0.1-0.5c0-0.2,0.1-0.4,0.2-0.6s0.3-0.3,0.5-0.4c0.2-0.1,0.5-0.2,0.9-0.2c0.2,0,0.5,0,0.7,0.1
					c0.2,0.1,0.4,0.2,0.6,0.3l-0.2,0.4c-0.2-0.1-0.4-0.2-0.6-0.3c-0.2-0.1-0.4-0.1-0.6-0.1c-0.3,0-0.5,0-0.6,0.1s-0.3,0.2-0.4,0.3
					c-0.1,0.1-0.1,0.2-0.1,0.4c0,0.2,0,0.3,0.1,0.4c0.1,0.1,0.2,0.2,0.4,0.2s0.3,0.1,0.5,0.1c0.2,0,0.4,0.1,0.5,0.1
					c0.2,0.1,0.4,0.1,0.5,0.2c0.2,0.1,0.3,0.2,0.4,0.3c0.1,0.1,0.1,0.3,0.1,0.5c0,0.2-0.1,0.4-0.2,0.6c-0.1,0.2-0.3,0.3-0.5,0.4
					C482.9,126.5,482.6,126.5,482.2,126.5z"/>
				<path class="st5" d="M485.6,126.5c-0.2,0-0.4,0-0.6-0.1s-0.3-0.2-0.4-0.3s-0.1-0.3-0.1-0.5c0-0.2,0-0.3,0.1-0.4s0.2-0.2,0.4-0.3
					s0.4-0.1,0.7-0.1h1.1v0.3h-1.1c-0.3,0-0.5,0.1-0.6,0.2c-0.1,0.1-0.2,0.2-0.2,0.4c0,0.2,0.1,0.3,0.2,0.4c0.1,0.1,0.3,0.2,0.6,0.2
					c0.2,0,0.4-0.1,0.6-0.2c0.2-0.1,0.3-0.3,0.4-0.5l0.1,0.3c-0.1,0.2-0.2,0.4-0.4,0.5C486.1,126.5,485.9,126.5,485.6,126.5z
					 M486.7,126.5v-0.7l0-0.1v-1.2c0-0.3-0.1-0.5-0.2-0.6c-0.2-0.1-0.4-0.2-0.7-0.2c-0.2,0-0.4,0-0.6,0.1c-0.2,0.1-0.3,0.2-0.5,0.3
					l-0.2-0.3c0.2-0.1,0.4-0.2,0.6-0.3c0.2-0.1,0.5-0.1,0.7-0.1c0.4,0,0.7,0.1,0.9,0.3c0.2,0.2,0.3,0.5,0.3,0.9v2H486.7z"/>
				<path class="st5" d="M488.2,126.5v-4.5h0.4v4.5H488.2z"/>
				<path class="st5" d="M490.7,126.5c-0.2,0-0.4,0-0.6-0.1s-0.3-0.2-0.4-0.3s-0.1-0.3-0.1-0.5c0-0.2,0-0.3,0.1-0.4s0.2-0.2,0.4-0.3
					s0.4-0.1,0.7-0.1h1.1v0.3h-1.1c-0.3,0-0.5,0.1-0.6,0.2c-0.1,0.1-0.2,0.2-0.2,0.4c0,0.2,0.1,0.3,0.2,0.4c0.1,0.1,0.3,0.2,0.6,0.2
					c0.2,0,0.4-0.1,0.6-0.2c0.2-0.1,0.3-0.3,0.4-0.5l0.1,0.3c-0.1,0.2-0.2,0.4-0.4,0.5C491.3,126.5,491,126.5,490.7,126.5z
					 M491.8,126.5v-0.7l0-0.1v-1.2c0-0.3-0.1-0.5-0.2-0.6c-0.2-0.1-0.4-0.2-0.7-0.2c-0.2,0-0.4,0-0.6,0.1c-0.2,0.1-0.3,0.2-0.5,0.3
					l-0.2-0.3c0.2-0.1,0.4-0.2,0.6-0.3c0.2-0.1,0.5-0.1,0.7-0.1c0.4,0,0.7,0.1,0.9,0.3c0.2,0.2,0.3,0.5,0.3,0.9v2H491.8z"/>
				<path class="st5" d="M496.3,126.5c-0.3,0-0.6-0.1-0.9-0.3s-0.5-0.4-0.6-0.7c-0.1-0.3-0.2-0.7-0.2-1.1c0-0.4,0.1-0.8,0.2-1.1
					c0.1-0.3,0.3-0.6,0.6-0.7c0.3-0.2,0.5-0.3,0.9-0.3c0.3,0,0.6,0.1,0.9,0.3c0.3,0.2,0.5,0.4,0.6,0.7c0.1,0.3,0.2,0.7,0.2,1.1
					c0,0.4-0.1,0.8-0.2,1.1c-0.1,0.3-0.3,0.6-0.6,0.7S496.7,126.5,496.3,126.5z M496.3,126.1c0.2,0,0.5-0.1,0.6-0.2
					c0.2-0.1,0.3-0.3,0.4-0.6c0.1-0.3,0.2-0.6,0.2-1s-0.1-0.7-0.2-1c-0.1-0.3-0.2-0.5-0.4-0.6c-0.2-0.1-0.4-0.2-0.6-0.2
					c-0.2,0-0.5,0.1-0.6,0.2c-0.2,0.1-0.3,0.3-0.4,0.6c-0.1,0.3-0.2,0.6-0.2,1s0.1,0.7,0.2,1c0.1,0.3,0.2,0.5,0.4,0.6
					C495.9,126.1,496.1,126.1,496.3,126.1z"/>
				<path class="st5" d="M499.9,126.5c-0.3,0-0.6,0-0.9-0.1c-0.3-0.1-0.5-0.2-0.7-0.4l0.2-0.3c0.1,0.1,0.3,0.3,0.5,0.3
					c0.2,0.1,0.5,0.1,0.8,0.1c0.3,0,0.6-0.1,0.8-0.2c0.2-0.2,0.3-0.4,0.3-0.6s-0.1-0.5-0.3-0.6c-0.2-0.2-0.5-0.2-0.9-0.2h-0.3v-0.3
					l1.3-1.6l0.1,0.2h-2.3v-0.4h2.7v0.3l-1.3,1.6l-0.2-0.1h0.2c0.5,0,0.9,0.1,1.1,0.3c0.2,0.2,0.4,0.5,0.4,0.9
					c0,0.2-0.1,0.4-0.2,0.6c-0.1,0.2-0.3,0.3-0.5,0.4S500.2,126.5,499.9,126.5z"/>
				<path class="st5" d="M503.6,125.1v-0.4h1.6v0.4H503.6z"/>
				<path class="st5" d="M507.7,126.5v-4.2h1.7c0.4,0,0.7,0.1,1,0.2c0.3,0.1,0.5,0.3,0.6,0.5c0.1,0.2,0.2,0.5,0.2,0.8
					c0,0.3-0.1,0.6-0.2,0.8c-0.1,0.2-0.3,0.4-0.6,0.5s-0.6,0.2-1,0.2h-1.3l0.3-0.4v1.6H507.7z M508.5,125l-0.3-0.4h1.3
					c0.3,0,0.6-0.1,0.8-0.2c0.2-0.1,0.3-0.4,0.3-0.6s-0.1-0.5-0.3-0.6c-0.2-0.1-0.4-0.2-0.8-0.2h-1.3l0.3-0.4V125z"/>
				<path class="st5" d="M513,126.5c-0.2,0-0.5,0-0.6-0.1s-0.3-0.2-0.4-0.3c-0.1-0.1-0.1-0.3-0.1-0.5c0-0.2,0-0.3,0.1-0.5
					c0.1-0.1,0.2-0.3,0.4-0.3c0.2-0.1,0.5-0.1,0.8-0.1h0.9v0.5h-0.9c-0.3,0-0.4,0-0.5,0.1s-0.1,0.2-0.1,0.3c0,0.1,0.1,0.2,0.2,0.3
					s0.3,0.1,0.5,0.1c0.2,0,0.3,0,0.5-0.1c0.1-0.1,0.3-0.2,0.3-0.4l0.1,0.5c-0.1,0.2-0.2,0.3-0.4,0.4
					C513.5,126.5,513.2,126.5,513,126.5z M514,126.5v-0.7l0-0.1v-1.1c0-0.2-0.1-0.4-0.2-0.5c-0.1-0.1-0.3-0.2-0.6-0.2
					c-0.2,0-0.4,0-0.5,0.1c-0.2,0.1-0.3,0.1-0.4,0.2l-0.3-0.5c0.2-0.1,0.4-0.2,0.6-0.3c0.2-0.1,0.5-0.1,0.7-0.1
					c0.5,0,0.8,0.1,1.1,0.3c0.3,0.2,0.4,0.6,0.4,1v1.9H514z"/>
				<path class="st5" d="M517,126.5c-0.3,0-0.5-0.1-0.7-0.2c-0.2-0.1-0.4-0.3-0.5-0.5s-0.2-0.5-0.2-0.8v-1.8h0.8v1.7
					c0,0.3,0.1,0.5,0.2,0.6s0.3,0.2,0.6,0.2c0.2,0,0.3,0,0.5-0.1c0.1-0.1,0.2-0.2,0.3-0.3c0.1-0.1,0.1-0.3,0.1-0.5v-1.6h0.8v3.2H518
					v-0.9l0.1,0.3c-0.1,0.2-0.3,0.4-0.5,0.5S517.2,126.5,517,126.5z"/>
				<path class="st5" d="M519.7,126.5v-4.5h0.7v4.5H519.7z"/>
				<path class="st5" d="M522.9,126.5c-0.3,0-0.6-0.1-0.9-0.2c-0.3-0.1-0.5-0.3-0.6-0.6c-0.1-0.2-0.2-0.5-0.2-0.8
					c0-0.3,0.1-0.6,0.2-0.9c0.1-0.2,0.3-0.4,0.6-0.6c0.3-0.1,0.5-0.2,0.9-0.2c0.3,0,0.6,0.1,0.9,0.2c0.3,0.1,0.5,0.3,0.6,0.6
					c0.1,0.2,0.2,0.5,0.2,0.9c0,0.3-0.1,0.6-0.2,0.8c-0.1,0.2-0.3,0.4-0.6,0.6C523.5,126.5,523.2,126.5,522.9,126.5z M522.9,125.9
					c0.2,0,0.3,0,0.5-0.1c0.1-0.1,0.3-0.2,0.3-0.4c0.1-0.2,0.1-0.3,0.1-0.5c0-0.2,0-0.4-0.1-0.5c-0.1-0.2-0.2-0.3-0.3-0.3
					c-0.1-0.1-0.3-0.1-0.5-0.1c-0.2,0-0.3,0-0.5,0.1c-0.1,0.1-0.3,0.2-0.3,0.3c-0.1,0.1-0.1,0.3-0.1,0.5c0,0.2,0,0.4,0.1,0.5
					c0.1,0.2,0.2,0.3,0.3,0.4C522.6,125.9,522.7,125.9,522.9,125.9z"/>
				<path class="st5" d="M526.5,126.5l1.9-4.2h0.8l1.9,4.2h-0.8l-1.6-3.8h0.3l-1.6,3.8H526.5z M527.3,125.5l0.2-0.6h2.3l0.2,0.6
					H527.3z"/>
				<path class="st5" d="M531,123.9v-0.6h2.1v0.6H531z M531.6,126.5v-3.4c0-0.3,0.1-0.6,0.3-0.8c0.2-0.2,0.5-0.3,0.8-0.3
					c0.1,0,0.3,0,0.4,0c0.1,0,0.2,0.1,0.3,0.1l-0.2,0.6c-0.1,0-0.1-0.1-0.2-0.1c-0.1,0-0.1,0-0.2,0c-0.2,0-0.3,0-0.4,0.1
					c-0.1,0.1-0.1,0.2-0.1,0.4v0.4l0,0.3v2.7H531.6z"/>
				<path class="st5" d="M535.1,126.5c-0.3,0-0.6-0.1-0.9-0.2c-0.3-0.1-0.5-0.3-0.6-0.6c-0.1-0.2-0.2-0.5-0.2-0.8
					c0-0.3,0.1-0.6,0.2-0.9c0.1-0.2,0.3-0.4,0.6-0.6c0.3-0.1,0.5-0.2,0.9-0.2c0.3,0,0.6,0.1,0.9,0.2c0.3,0.1,0.5,0.3,0.6,0.6
					c0.1,0.2,0.2,0.5,0.2,0.9c0,0.3-0.1,0.6-0.2,0.8c-0.1,0.2-0.3,0.4-0.6,0.6C535.7,126.5,535.5,126.5,535.1,126.5z M535.1,125.9
					c0.2,0,0.3,0,0.5-0.1c0.1-0.1,0.3-0.2,0.3-0.4c0.1-0.2,0.1-0.3,0.1-0.5c0-0.2,0-0.4-0.1-0.5c-0.1-0.2-0.2-0.3-0.3-0.3
					c-0.1-0.1-0.3-0.1-0.5-0.1c-0.2,0-0.3,0-0.5,0.1c-0.1,0.1-0.3,0.2-0.3,0.3c-0.1,0.1-0.1,0.3-0.1,0.5c0,0.2,0,0.4,0.1,0.5
					c0.1,0.2,0.2,0.3,0.3,0.4C534.8,125.9,534.9,125.9,535.1,125.9z"/>
				<path class="st5" d="M539.4,123.3c0.3,0,0.5,0,0.7,0.2c0.2,0.1,0.4,0.3,0.5,0.5s0.2,0.5,0.2,0.8v1.8H540v-1.7
					c0-0.3-0.1-0.5-0.2-0.6s-0.3-0.2-0.6-0.2c-0.2,0-0.3,0-0.5,0.1c-0.1,0.1-0.2,0.2-0.3,0.3c-0.1,0.1-0.1,0.3-0.1,0.5v1.6h-0.7
					v-3.2h0.7v0.9l-0.1-0.3c0.1-0.2,0.3-0.4,0.5-0.5C538.8,123.3,539.1,123.3,539.4,123.3z"/>
				<path class="st5" d="M542.7,126.5c-0.3,0-0.5,0-0.8-0.1c-0.2-0.1-0.4-0.2-0.6-0.3l0.3-0.6c0.1,0.1,0.3,0.2,0.5,0.2
					c0.2,0.1,0.4,0.1,0.6,0.1c0.2,0,0.4,0,0.5-0.1c0.1-0.1,0.2-0.1,0.2-0.3c0-0.1,0-0.2-0.1-0.2c-0.1,0-0.2-0.1-0.3-0.1
					c-0.1,0-0.2,0-0.4-0.1c-0.1,0-0.3,0-0.4-0.1s-0.3-0.1-0.4-0.2c-0.1-0.1-0.2-0.2-0.3-0.3s-0.1-0.3-0.1-0.5c0-0.2,0.1-0.4,0.2-0.5
					c0.1-0.2,0.3-0.3,0.5-0.4s0.5-0.1,0.7-0.1c0.2,0,0.4,0,0.7,0.1c0.2,0,0.4,0.1,0.6,0.2l-0.3,0.6c-0.1-0.1-0.3-0.1-0.5-0.2
					s-0.3-0.1-0.5-0.1c-0.2,0-0.4,0-0.5,0.1c-0.1,0.1-0.2,0.2-0.2,0.3c0,0.1,0,0.2,0.1,0.2c0.1,0,0.2,0.1,0.3,0.1
					c0.1,0,0.2,0.1,0.4,0.1c0.1,0,0.3,0,0.4,0.1c0.1,0,0.3,0.1,0.4,0.1c0.1,0.1,0.2,0.1,0.3,0.3c0.1,0.1,0.1,0.3,0.1,0.4
					c0,0.2-0.1,0.4-0.2,0.5c-0.1,0.1-0.3,0.3-0.5,0.3S543,126.5,542.7,126.5z"/>
				<path class="st5" d="M546.2,126.5c-0.3,0-0.6-0.1-0.9-0.2c-0.3-0.1-0.5-0.3-0.6-0.6c-0.1-0.2-0.2-0.5-0.2-0.8
					c0-0.3,0.1-0.6,0.2-0.9c0.1-0.2,0.3-0.4,0.6-0.6c0.3-0.1,0.5-0.2,0.9-0.2c0.3,0,0.6,0.1,0.9,0.2c0.3,0.1,0.5,0.3,0.6,0.6
					c0.1,0.2,0.2,0.5,0.2,0.9c0,0.3-0.1,0.6-0.2,0.8c-0.1,0.2-0.3,0.4-0.6,0.6C546.8,126.5,546.5,126.5,546.2,126.5z M546.2,125.9
					c0.2,0,0.3,0,0.5-0.1c0.1-0.1,0.3-0.2,0.3-0.4c0.1-0.2,0.1-0.3,0.1-0.5c0-0.2,0-0.4-0.1-0.5c-0.1-0.2-0.2-0.3-0.3-0.3
					c-0.1-0.1-0.3-0.1-0.5-0.1c-0.2,0-0.3,0-0.5,0.1c-0.1,0.1-0.3,0.2-0.3,0.3c-0.1,0.1-0.1,0.3-0.1,0.5c0,0.2,0,0.4,0.1,0.5
					c0.1,0.2,0.2,0.3,0.3,0.4C545.9,125.9,546,125.9,546.2,125.9z"/>
				<path class="st5" d="M547.9,127.1l2-5.7h0.7l-2,5.7H547.9z"/>
				<path class="st5" d="M550.9,126.5v-4.2h2c0.5,0,0.9,0.1,1.1,0.3c0.3,0.2,0.4,0.5,0.4,0.8c0,0.2-0.1,0.4-0.2,0.6
					c-0.1,0.2-0.2,0.3-0.4,0.4s-0.4,0.1-0.6,0.1l0.1-0.2c0.2,0,0.4,0,0.6,0.1c0.2,0.1,0.3,0.2,0.4,0.4s0.2,0.4,0.2,0.6
					c0,0.4-0.1,0.6-0.4,0.8s-0.7,0.3-1.2,0.3H550.9z M551.7,125.9h1.3c0.3,0,0.5,0,0.7-0.1c0.2-0.1,0.2-0.2,0.2-0.5
					c0-0.2-0.1-0.4-0.2-0.5c-0.2-0.1-0.4-0.1-0.7-0.1h-1.3v-0.6h1.2c0.3,0,0.5,0,0.6-0.1c0.1-0.1,0.2-0.2,0.2-0.4
					c0-0.2-0.1-0.3-0.2-0.4c-0.1-0.1-0.4-0.1-0.6-0.1h-1.1V125.9z"/>
				<path class="st5" d="M556.4,126.5c-0.2,0-0.5,0-0.6-0.1s-0.3-0.2-0.4-0.3c-0.1-0.1-0.1-0.3-0.1-0.5c0-0.2,0-0.3,0.1-0.5
					c0.1-0.1,0.2-0.3,0.4-0.3c0.2-0.1,0.5-0.1,0.8-0.1h0.9v0.5h-0.9c-0.3,0-0.4,0-0.5,0.1s-0.1,0.2-0.1,0.3c0,0.1,0.1,0.2,0.2,0.3
					s0.3,0.1,0.5,0.1c0.2,0,0.3,0,0.5-0.1c0.1-0.1,0.3-0.2,0.3-0.4l0.1,0.5c-0.1,0.2-0.2,0.3-0.4,0.4
					C556.9,126.5,556.7,126.5,556.4,126.5z M557.4,126.5v-0.7l0-0.1v-1.1c0-0.2-0.1-0.4-0.2-0.5c-0.1-0.1-0.3-0.2-0.6-0.2
					c-0.2,0-0.4,0-0.5,0.1c-0.2,0.1-0.3,0.1-0.4,0.2l-0.3-0.5c0.2-0.1,0.4-0.2,0.6-0.3c0.2-0.1,0.5-0.1,0.7-0.1
					c0.5,0,0.8,0.1,1.1,0.3c0.3,0.2,0.4,0.6,0.4,1v1.9H557.4z"/>
				<path class="st5" d="M560.9,123.3c0.3,0,0.5,0,0.7,0.2c0.2,0.1,0.4,0.3,0.5,0.5s0.2,0.5,0.2,0.8v1.8h-0.8v-1.7
					c0-0.3-0.1-0.5-0.2-0.6s-0.3-0.2-0.6-0.2c-0.2,0-0.3,0-0.5,0.1c-0.1,0.1-0.2,0.2-0.3,0.3c-0.1,0.1-0.1,0.3-0.1,0.5v1.6h-0.7
					v-4.5h0.7v2.1l-0.2-0.3c0.1-0.2,0.3-0.4,0.5-0.5C560.3,123.3,560.6,123.3,560.9,123.3z"/>
				<path class="st5" d="M563.5,122.8c-0.1,0-0.3,0-0.3-0.1c-0.1-0.1-0.1-0.2-0.1-0.3c0-0.1,0-0.2,0.1-0.3c0.1-0.1,0.2-0.1,0.3-0.1
					c0.1,0,0.3,0,0.3,0.1s0.1,0.2,0.1,0.3s0,0.2-0.1,0.3S563.7,122.8,563.5,122.8z M563.2,126.5v-3.2h0.7v3.2H563.2z"/>
				<path class="st5" d="M565.9,126.5c-0.2,0-0.5,0-0.6-0.1s-0.3-0.2-0.4-0.3c-0.1-0.1-0.1-0.3-0.1-0.5c0-0.2,0-0.3,0.1-0.5
					c0.1-0.1,0.2-0.3,0.4-0.3c0.2-0.1,0.5-0.1,0.8-0.1h0.9v0.5h-0.9c-0.3,0-0.4,0-0.5,0.1s-0.1,0.2-0.1,0.3c0,0.1,0.1,0.2,0.2,0.3
					s0.3,0.1,0.5,0.1c0.2,0,0.3,0,0.5-0.1c0.1-0.1,0.3-0.2,0.3-0.4l0.1,0.5c-0.1,0.2-0.2,0.3-0.4,0.4
					C566.4,126.5,566.2,126.5,565.9,126.5z M566.9,126.5v-0.7l0-0.1v-1.1c0-0.2-0.1-0.4-0.2-0.5c-0.1-0.1-0.3-0.2-0.6-0.2
					c-0.2,0-0.4,0-0.5,0.1c-0.2,0.1-0.3,0.1-0.4,0.2l-0.3-0.5c0.2-0.1,0.4-0.2,0.6-0.3c0.2-0.1,0.5-0.1,0.7-0.1
					c0.5,0,0.8,0.1,1.1,0.3c0.3,0.2,0.4,0.6,0.4,1v1.9H566.9z"/>
			</g>
		</g>
	</g>
	<g>
		<g id="Layer_x5F_1_00000124873030491134780640000016612207826089219761_">
			<g id="_610717584_00000183946543986994636500000004826743029079767693_">
				<path class="st1" d="M418.6,22.9c-2.6-4-9.3-6.4-14.9-4.7c-5.8,1.8-9,7.1-12.7,11.1c-3.9,4.2-9.4,5.6-7.8-2.2
					c-0.7,1.6-1,3.1-0.9,4.5c0.2,3,2.3,4.6,4.7,4.6c5.2,0.2,8.3-4.7,11.8-9C405.1,19.4,413.5,19.4,418.6,22.9z"/>
				<path class="st2" d="M384.2,36.5c1.7,2,4.3,3.3,7.3,3.7c8.5-0.3,11.5-5.1,13.9-9.5c4.5-8,11.1-1.3,4.2,0.2
					c-2.8,0.6-5.3,1.6-5.4,5.1c1.8-3.1,6.7-1.5,9.6-2.8c6.3-2.8,0.4-12-7.5-9.1c-6.2,2.3-6.8,9.1-12.1,11.8
					C391.6,37.3,387.3,37.6,384.2,36.5z"/>
				<path class="st3" d="M405,44.8c-0.5-7.7,9.7-2.1,14.9-8.7c3.8-4.9,1.9-13.3-8-13.6c7.5,2,7.9,9.2,3.9,11.9
					c-3.7,2.5-9.5-0.8-12.3,4C402.3,40.5,402.5,43.4,405,44.8z"/>
				<path class="st4" d="M405.2,16.5c-7.7-0.5-13.8,1.3-17.1,8.5c-1.3,2.9-4.4,0.6,0.7-4.2c-8.7,5-4.4,15.6,2.1,6
					C394.5,21.4,398.2,16.8,405.2,16.5z"/>
			</g>
		</g>
		<g>
			<g>
				<path class="st5" d="M433.8,37.5c-0.2-0.2-0.2-0.2-0.2-1.1c0-0.9-0.1-1.2-0.4-3.1l-0.2-1h-3.6l0,0.2c-0.1,0.5-0.3,3.8-0.3,4.5
					c0,0.2-0.3,0.4-0.6,0.6c-1,0.5-2.9,0.3-3.3-0.4c-0.1-0.2-0.1-0.2-0.1-1.2c0.1-2.5,0.5-6.4,1-9.2c0.5-3.1,1.3-5.9,2.2-7.7
					c0.8-1.8,1.5-2.2,3.1-2.2c0.7,0,1.2,0.1,1.6,0.3c0.5,0.3,0.9,0.8,1.3,2.2c0.5,1.6,0.9,3.4,1.7,7.6c0.3,1.4,0.6,3.3,0.8,4.2
					c0.6,2.9,0.7,3.8,0.7,5c0,1,0,1.1-0.1,1.2c-0.4,0.5-1.6,0.7-2.6,0.5C434.4,37.9,434,37.7,433.8,37.5z M431.2,22.6
					c0,0,0,0-0.3,1.1c-0.3,1.3-0.9,4.2-0.9,4.6c0,0.1,0,0.1,1.1,0.1c0.6,0,1.1,0,1.2-0.1C432.3,28.2,431.2,22.6,431.2,22.6z"/>
				<path class="st5" d="M443.7,37.4c-0.1-0.2-0.1-0.4,0-12l0-6.2h-4.5l-0.2-0.2c-0.2-0.2-0.3-0.6-0.3-1.3c0-0.6,0.2-0.9,0.4-1
					c0.2-0.1,13.2-0.1,13.4,0.1c0.1,0,0.2,0.2,0.2,0.3c0.1,0.2,0.1,0.3,0.1,0.9c0,0.5,0,0.7-0.1,0.9c-0.2,0.4,0,0.4-2.7,0.4l-2.4,0
					l0,8.9c0,7.7-0.1,9-0.1,9.1c-0.2,0.5-1.4,0.8-2.5,0.7C444.5,37.9,443.9,37.7,443.7,37.4z"/>
				<path class="st5" d="M460.1,37.4c-0.1-0.2-0.1-0.4,0-12l0-6.2h-4.5l-0.2-0.2c-0.2-0.2-0.3-0.6-0.3-1.3c0-0.6,0.2-0.9,0.4-1
					c0.2-0.1,13.2-0.1,13.4,0.1c0.1,0,0.2,0.2,0.2,0.3c0.1,0.2,0.1,0.3,0.1,0.9c0,0.5,0,0.7-0.1,0.9c-0.2,0.4,0,0.4-2.7,0.4l-2.4,0
					l0,8.9c0,7.7-0.1,9-0.1,9.1c-0.2,0.5-1.4,0.8-2.5,0.7C460.9,37.9,460.3,37.7,460.1,37.4z"/>
				<path class="st5" d="M472.7,37.6l-0.1-0.3l0-10c0-10.9,0-10.3,0.3-10.6l0.2-0.1l9.1,0l0.2,0.2c0.4,0.4,0.4,1.9,0,2.3
					c-0.1,0.1-0.7,0.1-2.8,0.1l-2.8,0v6.4l1.4,0c0.8,0,1.7,0,2.1,0c0.6,0,0.6,0,0.8,0.2c0.2,0.2,0.3,0.7,0.3,1.3
					c0,0.6-0.2,0.9-0.4,1c-0.1,0-0.7,0-2.1,0c-1.1,0-2,0-2,0c0,0,0,1.6,0,3.7l0,3.7l5.8,0l0.1,0.2c0.4,0.5,0.4,1.8,0,2.2l-0.1,0.1
					h-4.7c-4.4,0-4.7,0-4.8-0.1C472.9,37.9,472.8,37.7,472.7,37.6z"/>
				<path class="st5" d="M496.3,37.7c-0.3-0.1-0.3-0.2-0.6-1c-0.3-0.8-3.2-8-4.4-11.1l-0.8-2l0,1.4c0,0.8,0,3.8,0,6.7
					c0,5.8,0,5.5-0.4,5.7c-0.9,0.6-2.8,0.5-3.5-0.2l-0.2-0.2l0-9.8c0-11.2,0-10.1,0.5-10.3c0.4-0.2,1-0.3,1.7-0.3
					c0.7,0,1.2,0.1,1.5,0.2c0.3,0.1,0.2-0.1,1.6,3.4c2.9,7.1,4.4,11,4.4,11c0,0,0-3.2,0-7.1c0-8-0.1-7.3,0.4-7.6
					c0.2-0.1,0.4-0.2,0.6-0.2c0.4-0.1,1.3-0.1,1.8,0c0.4,0.1,1,0.4,1.1,0.6c0.1,0.2,0.1,1.2,0.1,10.2c0,11.2,0.1,10.2-0.4,10.5
					c-0.4,0.2-0.8,0.3-1.4,0.3c-0.3,0-0.7,0-0.7,0C497.2,38,496.5,37.8,496.3,37.7z"/>
				<path class="st5" d="M508.4,37.4c-0.1-0.2-0.1-0.4,0-12l0-6.2h-4.5l-0.2-0.2c-0.2-0.2-0.3-0.6-0.3-1.3c0-0.6,0.2-0.9,0.4-1
					c0.2-0.1,13.2-0.1,13.4,0.1c0.1,0,0.2,0.2,0.2,0.3c0.1,0.2,0.1,0.3,0.1,0.9c0,0.5,0,0.7-0.1,0.9c-0.2,0.4,0,0.4-2.7,0.4l-2.4,0
					l0,8.9c0,7.7-0.1,9-0.1,9.1c-0.2,0.5-1.4,0.8-2.5,0.7C509.2,37.9,508.6,37.7,508.4,37.4z"/>
				<path class="st5" d="M522.4,36.4c-1.7-1.4-3-4-3.3-6.9c-0.1-0.9-0.1-2.8,0-3.7c0.5-3.5,2-6.4,4.2-7.8c1.3-0.8,2.6-1.2,4.2-1.2
					c1.7,0,2.9,0.3,4.2,1.2c0.9,0.6,1.9,1.6,2.5,2.7c0.8,1.4,1.3,3.2,1.5,5c0.1,0.8,0,3-0.1,3.7c-0.3,1.7-0.7,3.1-1.5,4.4
					c-1.2,2.3-3.2,3.7-5.4,4.1c-0.6,0.1-1.8,0.1-2.5,0.1C524.8,37.9,523.5,37.3,522.4,36.4z M530,33.8c0.8-1.3,1.4-3,1.6-4.8
					c0.1-0.8,0.1-2.9,0-3.7c-0.4-2.4-1.2-4.3-2.5-5.6c-0.5-0.5-1-0.9-1.4-1c-0.3-0.1-0.5,0-1.1,0.4c-1.7,1.1-3.1,3.8-3.5,6.8
					c-0.1,0.9-0.1,2.8,0,3.7c0.4,2.3,1.2,4.2,2.3,5.4c0.6,0.7,1.3,1.1,1.7,1.1c0.1,0,0.3-0.1,0.6-0.2
					C528.5,35.6,529.3,34.7,530,33.8z"/>
			</g>
			<g>
				<path class="st3" d="M426.4,44c-0.2,0-0.4,0-0.5-0.1c-0.2-0.1-0.3-0.1-0.4-0.3c-0.1-0.1-0.2-0.2-0.3-0.4
					c-0.1-0.2-0.1-0.3-0.1-0.5c0-0.2,0-0.3,0.1-0.5c0.1-0.2,0.2-0.3,0.3-0.4c0.1-0.1,0.3-0.2,0.4-0.3c0.2-0.1,0.3-0.1,0.5-0.1
					c0.2,0,0.4,0,0.5,0.1c0.2,0.1,0.3,0.2,0.4,0.3l-0.2,0.2c-0.1-0.1-0.2-0.2-0.3-0.2c-0.1,0-0.2-0.1-0.4-0.1c-0.1,0-0.3,0-0.4,0.1
					c-0.1,0-0.2,0.1-0.3,0.2c-0.1,0.1-0.2,0.2-0.2,0.3c0,0.1-0.1,0.2-0.1,0.4c0,0.1,0,0.3,0.1,0.4c0,0.1,0.1,0.2,0.2,0.3
					c0.1,0.1,0.2,0.1,0.3,0.2c0.1,0,0.2,0.1,0.4,0.1c0.1,0,0.3,0,0.4-0.1c0.1,0,0.2-0.1,0.3-0.2l0.2,0.2c-0.1,0.1-0.2,0.2-0.4,0.3
					C426.8,44,426.6,44,426.4,44z"/>
				<path class="st3" d="M427.9,44v-2.4h0.3v2.1h1.3V44H427.9z"/>
				<path class="st3" d="M429.9,41.3l0.5-0.5h0.4l-0.6,0.5H429.9z M429.9,44v-2.4h0.3V44H429.9z"/>
				<path class="st3" d="M431,44v-2.4h0.3l1.6,2h-0.2v-2h0.3V44h-0.3l-1.6-2h0.2v2H431z"/>
				<path class="st3" d="M433.9,44v-2.4h0.3V44H433.9z"/>
				<path class="st3" d="M436,44c-0.2,0-0.4,0-0.5-0.1c-0.2-0.1-0.3-0.1-0.4-0.3c-0.1-0.1-0.2-0.2-0.3-0.4c-0.1-0.2-0.1-0.3-0.1-0.5
					c0-0.2,0-0.3,0.1-0.5c0.1-0.2,0.2-0.3,0.3-0.4c0.1-0.1,0.3-0.2,0.4-0.3c0.2-0.1,0.3-0.1,0.5-0.1c0.2,0,0.4,0,0.5,0.1
					c0.2,0.1,0.3,0.2,0.4,0.3l-0.2,0.2c-0.1-0.1-0.2-0.2-0.3-0.2c-0.1,0-0.2-0.1-0.4-0.1c-0.1,0-0.3,0-0.4,0.1
					c-0.1,0-0.2,0.1-0.3,0.2c-0.1,0.1-0.2,0.2-0.2,0.3c0,0.1-0.1,0.2-0.1,0.4c0,0.1,0,0.3,0.1,0.4c0,0.1,0.1,0.2,0.2,0.3
					c0.1,0.1,0.2,0.1,0.3,0.2c0.1,0,0.2,0.1,0.4,0.1c0.1,0,0.3,0,0.4-0.1c0.1,0,0.2-0.1,0.3-0.2l0.2,0.2c-0.1,0.1-0.2,0.2-0.4,0.3
					C436.4,44,436.2,44,436,44z"/>
				<path class="st3" d="M437.1,44l1.1-2.4h0.3l1.1,2.4h-0.4l-1-2.3h0.1l-1,2.3H437.1z M437.5,43.4l0.1-0.3h1.4l0.1,0.3H437.5z"/>
				<path class="st3" d="M440.9,44v-2.4h1c0.3,0,0.5,0.1,0.7,0.2c0.2,0.1,0.4,0.2,0.5,0.4c0.1,0.2,0.2,0.4,0.2,0.6
					c0,0.2-0.1,0.5-0.2,0.6c-0.1,0.2-0.3,0.3-0.5,0.4c-0.2,0.1-0.4,0.2-0.7,0.2H440.9z M441.3,43.7h0.7c0.2,0,0.4,0,0.5-0.1
					c0.1-0.1,0.3-0.2,0.3-0.3c0.1-0.1,0.1-0.3,0.1-0.5c0-0.2,0-0.3-0.1-0.5c-0.1-0.1-0.2-0.2-0.3-0.3c-0.1-0.1-0.3-0.1-0.5-0.1h-0.7
					V43.7z"/>
				<path class="st3" d="M444.2,43.7h1.4V44h-1.8v-2.4h1.7v0.3h-1.4V43.7z M444.1,42.6h1.3v0.3h-1.3V42.6z"/>
				<path class="st3" d="M447.1,44v-2.4h0.3V44H447.1z"/>
				<path class="st3" d="M448.2,44v-2.4h0.3l1.6,2h-0.2v-2h0.3V44H450l-1.6-2h0.2v2H448.2z"/>
				<path class="st3" d="M451.5,44v-2.1h-0.8v-0.3h2v0.3h-0.8V44H451.5z"/>
				<path class="st3" d="M453.4,43.7h1.4V44h-1.8v-2.4h1.7v0.3h-1.4V43.7z M453.4,42.6h1.3v0.3h-1.3V42.6z"/>
				<path class="st3" d="M455.4,44v-2.4h1c0.2,0,0.4,0,0.5,0.1c0.2,0.1,0.3,0.2,0.3,0.3c0.1,0.1,0.1,0.3,0.1,0.5
					c0,0.2,0,0.3-0.1,0.5c-0.1,0.1-0.2,0.2-0.3,0.3c-0.2,0.1-0.3,0.1-0.5,0.1h-0.8l0.2-0.2V44H455.4z M455.8,43.1l-0.2-0.2h0.8
					c0.2,0,0.4,0,0.5-0.1c0.1-0.1,0.2-0.2,0.2-0.4c0-0.2-0.1-0.3-0.2-0.4c-0.1-0.1-0.3-0.1-0.5-0.1h-0.8l0.2-0.2V43.1z M457,44
					l-0.6-0.9h0.4l0.6,0.9H457z"/>
				<path class="st3" d="M458.7,44l-1.1-2.4h0.4l1,2.3h-0.2l1-2.3h0.3L459,44H458.7z"/>
				<path class="st3" d="M460.7,43.7h1.4V44h-1.8v-2.4h1.7v0.3h-1.4V43.7z M460.7,42.6h1.3v0.3h-1.3V42.6z"/>
				<path class="st3" d="M462.7,44v-2.4h0.3l1.6,2h-0.2v-2h0.3V44h-0.3l-1.6-2h0.2v2H462.7z"/>
				<path class="st3" d="M466.7,44c-0.2,0-0.4,0-0.5-0.1c-0.2-0.1-0.3-0.1-0.4-0.3c-0.1-0.1-0.2-0.2-0.3-0.4
					c-0.1-0.2-0.1-0.3-0.1-0.5c0-0.2,0-0.3,0.1-0.5c0.1-0.2,0.2-0.3,0.3-0.4c0.1-0.1,0.3-0.2,0.4-0.3c0.2-0.1,0.3-0.1,0.5-0.1
					c0.2,0,0.4,0,0.5,0.1c0.2,0.1,0.3,0.2,0.4,0.3l-0.2,0.2c-0.1-0.1-0.2-0.2-0.3-0.2c-0.1,0-0.2-0.1-0.4-0.1c-0.1,0-0.3,0-0.4,0.1
					c-0.1,0-0.2,0.1-0.3,0.2c-0.1,0.1-0.2,0.2-0.2,0.3c0,0.1-0.1,0.2-0.1,0.4c0,0.1,0,0.3,0.1,0.4c0,0.1,0.1,0.2,0.2,0.3
					c0.1,0.1,0.2,0.1,0.3,0.2c0.1,0,0.2,0.1,0.4,0.1c0.1,0,0.3,0,0.4-0.1c0.1,0,0.2-0.1,0.3-0.2l0.2,0.2c-0.1,0.1-0.2,0.2-0.4,0.3
					C467,44,466.9,44,466.7,44z M466.5,44.8c-0.1,0-0.1,0-0.2,0c-0.1,0-0.1,0-0.1-0.1l0.1-0.2c0,0,0.1,0,0.1,0c0,0,0.1,0,0.1,0
					c0.1,0,0.1,0,0.1,0s0-0.1,0-0.1c0,0,0-0.1,0-0.1c0,0-0.1,0-0.2,0h-0.1l0.1-0.3h0.2l-0.1,0.2c0.1,0,0.2,0,0.2,0.1
					c0.1,0.1,0.1,0.1,0.1,0.2c0,0.1,0,0.2-0.1,0.2C466.8,44.7,466.6,44.8,466.5,44.8z"/>
				<path class="st3" d="M467.7,44l1.1-2.4h0.3l1.1,2.4h-0.4l-1-2.3h0.1l-1,2.3H467.7z M468.1,43.4l0.1-0.3h1.4l0.1,0.3H468.1z
					 M469.2,41.3c-0.1,0-0.1,0-0.1,0c0,0-0.1-0.1-0.1-0.1c0,0-0.1-0.1-0.1-0.1c0,0-0.1,0-0.1,0c-0.1,0-0.1,0-0.1,0.1
					c0,0,0,0.1-0.1,0.2h-0.2c0-0.1,0-0.2,0.1-0.3c0.1-0.1,0.1-0.1,0.2-0.1c0.1,0,0.1,0,0.2,0c0,0,0.1,0.1,0.1,0.1
					c0,0,0.1,0.1,0.1,0.1c0,0,0.1,0,0.1,0c0.1,0,0.1,0,0.1-0.1c0,0,0.1-0.1,0.1-0.2h0.2c0,0.1,0,0.2-0.1,0.3
					C469.4,41.3,469.3,41.3,469.2,41.3z"/>
				<path class="st3" d="M471.7,44c-0.2,0-0.4,0-0.5-0.1c-0.2-0.1-0.3-0.2-0.4-0.3c-0.1-0.1-0.2-0.2-0.3-0.4
					c-0.1-0.2-0.1-0.3-0.1-0.5c0-0.2,0-0.3,0.1-0.5c0.1-0.2,0.2-0.3,0.3-0.4c0.1-0.1,0.3-0.2,0.4-0.3c0.2-0.1,0.3-0.1,0.5-0.1
					c0.2,0,0.4,0,0.5,0.1c0.2,0.1,0.3,0.1,0.4,0.3c0.1,0.1,0.2,0.2,0.3,0.4c0.1,0.2,0.1,0.3,0.1,0.5c0,0.2,0,0.3-0.1,0.5
					c-0.1,0.2-0.2,0.3-0.3,0.4c-0.1,0.1-0.3,0.2-0.4,0.3C472,44,471.9,44,471.7,44z M471.7,43.7c0.1,0,0.3,0,0.4-0.1
					c0.1,0,0.2-0.1,0.3-0.2c0.1-0.1,0.2-0.2,0.2-0.3c0-0.1,0.1-0.2,0.1-0.4c0-0.1,0-0.3-0.1-0.4c0-0.1-0.1-0.2-0.2-0.3
					c-0.1-0.1-0.2-0.2-0.3-0.2c-0.1,0-0.2-0.1-0.4-0.1c-0.1,0-0.3,0-0.4,0.1c-0.1,0-0.2,0.1-0.3,0.2c-0.1,0.1-0.2,0.2-0.2,0.3
					c0,0.1-0.1,0.2-0.1,0.4c0,0.1,0,0.3,0.1,0.4c0,0.1,0.1,0.2,0.2,0.3c0.1,0.1,0.2,0.2,0.3,0.2C471.4,43.7,471.5,43.7,471.7,43.7z"
					/>
				<path class="st3" d="M474.4,44v-2.4h1c0.3,0,0.5,0.1,0.7,0.2c0.2,0.1,0.4,0.2,0.5,0.4c0.1,0.2,0.2,0.4,0.2,0.6
					c0,0.2-0.1,0.5-0.2,0.6c-0.1,0.2-0.3,0.3-0.5,0.4c-0.2,0.1-0.4,0.2-0.7,0.2H474.4z M474.8,43.7h0.7c0.2,0,0.4,0,0.5-0.1
					c0.1-0.1,0.3-0.2,0.3-0.3c0.1-0.1,0.1-0.3,0.1-0.5c0-0.2,0-0.3-0.1-0.5c-0.1-0.1-0.2-0.2-0.3-0.3c-0.1-0.1-0.3-0.1-0.5-0.1h-0.7
					V43.7z"/>
				<path class="st3" d="M478.4,44c-0.2,0-0.4,0-0.5-0.1c-0.2-0.1-0.3-0.2-0.4-0.3c-0.1-0.1-0.2-0.2-0.3-0.4
					c-0.1-0.2-0.1-0.3-0.1-0.5c0-0.2,0-0.3,0.1-0.5c0.1-0.2,0.2-0.3,0.3-0.4c0.1-0.1,0.3-0.2,0.4-0.3c0.2-0.1,0.3-0.1,0.5-0.1
					c0.2,0,0.4,0,0.5,0.1c0.2,0.1,0.3,0.1,0.4,0.3c0.1,0.1,0.2,0.2,0.3,0.4c0.1,0.2,0.1,0.3,0.1,0.5c0,0.2,0,0.3-0.1,0.5
					c-0.1,0.2-0.2,0.3-0.3,0.4c-0.1,0.1-0.3,0.2-0.4,0.3C478.8,44,478.6,44,478.4,44z M478.4,43.7c0.1,0,0.3,0,0.4-0.1
					c0.1,0,0.2-0.1,0.3-0.2c0.1-0.1,0.2-0.2,0.2-0.3c0-0.1,0.1-0.2,0.1-0.4c0-0.1,0-0.3-0.1-0.4c0-0.1-0.1-0.2-0.2-0.3
					c-0.1-0.1-0.2-0.2-0.3-0.2c-0.1,0-0.2-0.1-0.4-0.1c-0.1,0-0.3,0-0.4,0.1c-0.1,0-0.2,0.1-0.3,0.2c-0.1,0.1-0.2,0.2-0.2,0.3
					c0,0.1-0.1,0.2-0.1,0.4c0,0.1,0,0.3,0.1,0.4c0,0.1,0.1,0.2,0.2,0.3c0.1,0.1,0.2,0.2,0.3,0.2C478.2,43.7,478.3,43.7,478.4,43.7z"
					/>
				<path class="st3" d="M481.2,44v-2.4h1c0.3,0,0.5,0.1,0.7,0.2c0.2,0.1,0.4,0.2,0.5,0.4c0.1,0.2,0.2,0.4,0.2,0.6
					c0,0.2-0.1,0.5-0.2,0.6c-0.1,0.2-0.3,0.3-0.5,0.4c-0.2,0.1-0.4,0.2-0.7,0.2H481.2z M481.5,43.7h0.7c0.2,0,0.4,0,0.5-0.1
					c0.1-0.1,0.3-0.2,0.3-0.3c0.1-0.1,0.1-0.3,0.1-0.5c0-0.2,0-0.3-0.1-0.5c-0.1-0.1-0.2-0.2-0.3-0.3c-0.1-0.1-0.3-0.1-0.5-0.1h-0.7
					V43.7z"/>
				<path class="st3" d="M484.4,43.7h1.4V44h-1.8v-2.4h1.7v0.3h-1.4V43.7z M484.4,42.6h1.3v0.3h-1.3V42.6z"/>
				<path class="st3" d="M487.1,44c-0.2,0-0.4,0-0.5-0.1c-0.2-0.1-0.3-0.1-0.4-0.2l0.1-0.3c0.1,0.1,0.2,0.1,0.4,0.2
					c0.1,0.1,0.3,0.1,0.5,0.1c0.1,0,0.3,0,0.3,0c0.1,0,0.2-0.1,0.2-0.1c0-0.1,0.1-0.1,0.1-0.2c0-0.1,0-0.2-0.1-0.2
					c-0.1-0.1-0.1-0.1-0.2-0.1c-0.1,0-0.2-0.1-0.3-0.1c-0.1,0-0.2-0.1-0.3-0.1c-0.1,0-0.2-0.1-0.3-0.1c-0.1,0-0.2-0.1-0.2-0.2
					c-0.1-0.1-0.1-0.2-0.1-0.3c0-0.1,0-0.2,0.1-0.3c0.1-0.1,0.2-0.2,0.3-0.3c0.1-0.1,0.3-0.1,0.5-0.1c0.1,0,0.3,0,0.4,0.1
					c0.1,0,0.3,0.1,0.4,0.2l-0.1,0.3c-0.1-0.1-0.2-0.1-0.3-0.2c-0.1,0-0.2,0-0.3,0c-0.1,0-0.3,0-0.3,0.1c-0.1,0-0.2,0.1-0.2,0.1
					c0,0.1-0.1,0.1-0.1,0.2c0,0.1,0,0.2,0.1,0.2c0.1,0.1,0.1,0.1,0.2,0.1c0.1,0,0.2,0.1,0.3,0.1c0.1,0,0.2,0.1,0.3,0.1
					c0.1,0,0.2,0.1,0.3,0.1c0.1,0,0.2,0.1,0.2,0.2c0.1,0.1,0.1,0.2,0.1,0.3c0,0.1,0,0.2-0.1,0.3c-0.1,0.1-0.2,0.2-0.3,0.3
					C487.5,44,487.4,44,487.1,44z"/>
				<path class="st3" d="M489,43.7h1.4V44h-1.8v-2.4h1.7v0.3H489V43.7z M488.9,42.6h1.3v0.3h-1.3V42.6z"/>
				<path class="st3" d="M490.9,44v-2.4h0.3l1.6,2h-0.2v-2h0.3V44h-0.3l-1.6-2h0.2v2H490.9z"/>
				<path class="st3" d="M494.5,44l-1.1-2.4h0.4l1,2.3h-0.2l1-2.3h0.3l-1.1,2.4H494.5z"/>
				<path class="st3" d="M497.3,44c-0.2,0-0.4,0-0.5-0.1c-0.2-0.1-0.3-0.2-0.4-0.3c-0.1-0.1-0.2-0.2-0.3-0.4
					c-0.1-0.2-0.1-0.3-0.1-0.5c0-0.2,0-0.3,0.1-0.5c0.1-0.2,0.2-0.3,0.3-0.4c0.1-0.1,0.3-0.2,0.4-0.3c0.2-0.1,0.3-0.1,0.5-0.1
					c0.2,0,0.4,0,0.5,0.1c0.2,0.1,0.3,0.1,0.4,0.3c0.1,0.1,0.2,0.2,0.3,0.4c0.1,0.2,0.1,0.3,0.1,0.5c0,0.2,0,0.3-0.1,0.5
					c-0.1,0.2-0.2,0.3-0.3,0.4c-0.1,0.1-0.3,0.2-0.4,0.3C497.6,44,497.5,44,497.3,44z M497.3,43.7c0.1,0,0.3,0,0.4-0.1
					c0.1,0,0.2-0.1,0.3-0.2c0.1-0.1,0.2-0.2,0.2-0.3c0-0.1,0.1-0.2,0.1-0.4c0-0.1,0-0.3-0.1-0.4c0-0.1-0.1-0.2-0.2-0.3
					c-0.1-0.1-0.2-0.2-0.3-0.2c-0.1,0-0.2-0.1-0.4-0.1c-0.1,0-0.3,0-0.4,0.1c-0.1,0-0.2,0.1-0.3,0.2c-0.1,0.1-0.2,0.2-0.2,0.3
					c0,0.1-0.1,0.2-0.1,0.4c0,0.1,0,0.3,0.1,0.4c0,0.1,0.1,0.2,0.2,0.3c0.1,0.1,0.2,0.2,0.3,0.2C497,43.7,497.1,43.7,497.3,43.7z"/>
				<path class="st3" d="M499.1,44v-2.4h0.3v2.1h1.3V44H499.1z"/>
				<path class="st3" d="M501.7,44l-1.1-2.4h0.4l1,2.3h-0.2l1-2.3h0.3l-1.1,2.4H501.7z"/>
				<path class="st3" d="M503.4,44v-2.4h0.3V44H503.4z"/>
				<path class="st3" d="M504.5,44v-2.4h0.3l1.1,1.8h-0.2l1.1-1.8h0.3l0,2.4h-0.3l0-1.9h0.1l-1,1.6h-0.2l-1-1.6h0.1V44H504.5z"/>
				<path class="st3" d="M508.2,43.7h1.4V44h-1.8v-2.4h1.7v0.3h-1.4V43.7z M508.2,42.6h1.3v0.3h-1.3V42.6z"/>
				<path class="st3" d="M510.2,44v-2.4h0.3l1.6,2H512v-2h0.3V44H512l-1.6-2h0.2v2H510.2z"/>
				<path class="st3" d="M513.5,44v-2.1h-0.8v-0.3h2v0.3h-0.8V44H513.5z"/>
				<path class="st3" d="M516.2,44c-0.2,0-0.4,0-0.5-0.1c-0.2-0.1-0.3-0.2-0.4-0.3c-0.1-0.1-0.2-0.2-0.3-0.4
					c-0.1-0.2-0.1-0.3-0.1-0.5c0-0.2,0-0.3,0.1-0.5c0.1-0.2,0.2-0.3,0.3-0.4c0.1-0.1,0.3-0.2,0.4-0.3c0.2-0.1,0.3-0.1,0.5-0.1
					c0.2,0,0.4,0,0.5,0.1c0.2,0.1,0.3,0.1,0.4,0.3c0.1,0.1,0.2,0.2,0.3,0.4s0.1,0.3,0.1,0.5c0,0.2,0,0.3-0.1,0.5
					c-0.1,0.2-0.2,0.3-0.3,0.4c-0.1,0.1-0.3,0.2-0.4,0.3C516.5,44,516.3,44,516.2,44z M516.2,43.7c0.1,0,0.3,0,0.4-0.1
					c0.1,0,0.2-0.1,0.3-0.2c0.1-0.1,0.2-0.2,0.2-0.3c0-0.1,0.1-0.2,0.1-0.4c0-0.1,0-0.3-0.1-0.4c0-0.1-0.1-0.2-0.2-0.3
					s-0.2-0.2-0.3-0.2c-0.1,0-0.2-0.1-0.4-0.1c-0.1,0-0.3,0-0.4,0.1c-0.1,0-0.2,0.1-0.3,0.2c-0.1,0.1-0.2,0.2-0.2,0.3
					c0,0.1-0.1,0.2-0.1,0.4c0,0.1,0,0.3,0.1,0.4c0,0.1,0.1,0.2,0.2,0.3c0.1,0.1,0.2,0.2,0.3,0.2C515.9,43.7,516,43.7,516.2,43.7z"/>
				<path class="st3" d="M519.3,44h-0.3v-2.4h0.3V44z M520.7,42.9h-1.5v-0.3h1.5V42.9z M520.7,41.5h0.3V44h-0.3V41.5z"/>
				<path class="st3" d="M522.8,44c-0.3,0-0.6-0.1-0.8-0.3c-0.2-0.2-0.3-0.5-0.3-0.8v-1.4h0.3v1.4c0,0.3,0.1,0.5,0.2,0.6
					c0.1,0.1,0.3,0.2,0.5,0.2c0.2,0,0.4-0.1,0.5-0.2c0.1-0.1,0.2-0.3,0.2-0.6v-1.4h0.3v1.4c0,0.4-0.1,0.6-0.3,0.8
					C523.4,43.9,523.1,44,522.8,44z"/>
				<path class="st3" d="M524.5,44v-2.4h0.3l1.1,1.8h-0.2l1.1-1.8h0.3l0,2.4h-0.3l0-1.9h0.1l-1,1.6h-0.2l-1-1.6h0.1V44H524.5z"/>
				<path class="st3" d="M527.5,44l1.1-2.4h0.3l1.1,2.4h-0.4l-1-2.3h0.1l-1,2.3H527.5z M528,43.4l0.1-0.3h1.4l0.1,0.3H528z"/>
				<path class="st3" d="M530.4,44v-2.4h0.3l1.6,2h-0.2v-2h0.3V44h-0.3l-1.6-2h0.2v2H530.4z"/>
				<path class="st3" d="M534.4,44c-0.2,0-0.4,0-0.5-0.1c-0.2-0.1-0.3-0.2-0.4-0.3c-0.1-0.1-0.2-0.2-0.3-0.4
					c-0.1-0.2-0.1-0.3-0.1-0.5c0-0.2,0-0.3,0.1-0.5c0.1-0.2,0.2-0.3,0.3-0.4c0.1-0.1,0.3-0.2,0.4-0.3c0.2-0.1,0.3-0.1,0.5-0.1
					c0.2,0,0.4,0,0.5,0.1c0.2,0.1,0.3,0.1,0.4,0.3c0.1,0.1,0.2,0.2,0.3,0.4c0.1,0.2,0.1,0.3,0.1,0.5c0,0.2,0,0.3-0.1,0.5
					c-0.1,0.2-0.2,0.3-0.3,0.4c-0.1,0.1-0.3,0.2-0.4,0.3C534.7,44,534.6,44,534.4,44z M534.4,43.7c0.1,0,0.3,0,0.4-0.1
					c0.1,0,0.2-0.1,0.3-0.2c0.1-0.1,0.2-0.2,0.2-0.3c0-0.1,0.1-0.2,0.1-0.4c0-0.1,0-0.3-0.1-0.4c0-0.1-0.1-0.2-0.2-0.3
					c-0.1-0.1-0.2-0.2-0.3-0.2c-0.1,0-0.2-0.1-0.4-0.1c-0.1,0-0.3,0-0.4,0.1c-0.1,0-0.2,0.1-0.3,0.2s-0.2,0.2-0.2,0.3
					c0,0.1-0.1,0.2-0.1,0.4c0,0.1,0,0.3,0.1,0.4c0,0.1,0.1,0.2,0.2,0.3c0.1,0.1,0.2,0.2,0.3,0.2C534.1,43.7,534.2,43.7,534.4,43.7z"
					/>
			</g>
		</g>
	</g>
</g>
<g id="Principal_Ãrea_de_trabalho_1_">
</g>
</svg>
